<svg xmlns="http://www.w3.org/2000/svg" xmlns:xlink="http://www.w3.org/1999/xlink" width="500" zoomAndPan="magnify" viewBox="0 0 375 374.999991" height="500" preserveAspectRatio="xMidYMid meet" version="1.0"><defs><g/><clipPath id="b7658f1a0e"><path d="M 75.765625 75.765625 L 300.015625 75.765625 L 300.015625 300.015625 L 75.765625 300.015625 Z M 75.765625 75.765625 " clip-rule="nonzero"/></clipPath><clipPath id="b943d8bf7d"><path d="M 187.996094 75.765625 C 126.011719 75.765625 75.765625 126.011719 75.765625 187.996094 C 75.765625 249.976562 126.011719 300.226562 187.996094 300.226562 C 249.976562 300.226562 300.226562 249.976562 300.226562 187.996094 C 300.226562 126.011719 249.976562 75.765625 187.996094 75.765625 Z M 187.996094 75.765625 " clip-rule="nonzero"/></clipPath><clipPath id="67cd9cfa64"><path d="M 189 148 L 252 148 L 252 252.1875 L 189 252.1875 Z M 189 148 " clip-rule="nonzero"/></clipPath><clipPath id="9fb4d8b077"><path d="M 123 148 L 186 148 L 186 252.1875 L 123 252.1875 Z M 123 148 " clip-rule="nonzero"/></clipPath><clipPath id="a169272e7d"><path d="M 137 123.1875 L 239 123.1875 L 239 180 L 137 180 Z M 137 123.1875 " clip-rule="nonzero"/></clipPath><clipPath id="fd2e3ceca9"><path d="M 106.148438 106.148438 L 268.851562 106.148438 L 268.851562 268.851562 L 106.148438 268.851562 Z M 106.148438 106.148438 " clip-rule="nonzero"/></clipPath><clipPath id="ac67560c38"><path d="M 187.5 106.148438 C 142.570312 106.148438 106.148438 142.570312 106.148438 187.5 C 106.148438 232.429688 142.570312 268.851562 187.5 268.851562 C 232.429688 268.851562 268.851562 232.429688 268.851562 187.5 C 268.851562 142.570312 232.429688 106.148438 187.5 106.148438 Z M 187.5 106.148438 " clip-rule="nonzero"/></clipPath><clipPath id="eee9065f4d"><path d="M 84.292969 185.84375 L 98.007812 185.84375 L 98.007812 199.5625 L 84.292969 199.5625 Z M 84.292969 185.84375 " clip-rule="nonzero"/></clipPath><clipPath id="8cacf47c0f"><path d="M 91.152344 185.84375 C 87.363281 185.84375 84.292969 188.917969 84.292969 192.703125 C 84.292969 196.492188 87.363281 199.5625 91.152344 199.5625 C 94.9375 199.5625 98.007812 196.492188 98.007812 192.703125 C 98.007812 188.917969 94.9375 185.84375 91.152344 185.84375 Z M 91.152344 185.84375 " clip-rule="nonzero"/></clipPath><clipPath id="e2b297fcd4"><path d="M 0.292969 0.84375 L 14.007812 0.84375 L 14.007812 14.5625 L 0.292969 14.5625 Z M 0.292969 0.84375 " clip-rule="nonzero"/></clipPath><clipPath id="8263b326e7"><path d="M 7.152344 0.84375 C 3.363281 0.84375 0.292969 3.917969 0.292969 7.703125 C 0.292969 11.492188 3.363281 14.5625 7.152344 14.5625 C 10.9375 14.5625 14.007812 11.492188 14.007812 7.703125 C 14.007812 3.917969 10.9375 0.84375 7.152344 0.84375 Z M 7.152344 0.84375 " clip-rule="nonzero"/></clipPath><clipPath id="d23903cedb"><rect x="0" width="15" y="0" height="15"/></clipPath><clipPath id="3c3b95c1ff"><path d="M 274.160156 185.84375 L 287.875 185.84375 L 287.875 199.5625 L 274.160156 199.5625 Z M 274.160156 185.84375 " clip-rule="nonzero"/></clipPath><clipPath id="644867beaa"><path d="M 281.015625 185.84375 C 277.230469 185.84375 274.160156 188.917969 274.160156 192.703125 C 274.160156 196.492188 277.230469 199.5625 281.015625 199.5625 C 284.804688 199.5625 287.875 196.492188 287.875 192.703125 C 287.875 188.917969 284.804688 185.84375 281.015625 185.84375 Z M 281.015625 185.84375 " clip-rule="nonzero"/></clipPath><clipPath id="f418fd3009"><path d="M 0.160156 0.84375 L 13.875 0.84375 L 13.875 14.5625 L 0.160156 14.5625 Z M 0.160156 0.84375 " clip-rule="nonzero"/></clipPath><clipPath id="ee33eefc09"><path d="M 7.015625 0.84375 C 3.230469 0.84375 0.160156 3.917969 0.160156 7.703125 C 0.160156 11.492188 3.230469 14.5625 7.015625 14.5625 C 10.804688 14.5625 13.875 11.492188 13.875 7.703125 C 13.875 3.917969 10.804688 0.84375 7.015625 0.84375 Z M 7.015625 0.84375 " clip-rule="nonzero"/></clipPath><clipPath id="a301ed8a60"><rect x="0" width="14" y="0" height="15"/></clipPath></defs><rect x="-37.5" width="450" fill="#ffffff" y="-37.499999" height="449.999989" fill-opacity="1"/><rect x="-37.5" width="450" fill="#ffffff" y="-37.499999" height="449.999989" fill-opacity="1"/><g clip-path="url(#b7658f1a0e)"><g clip-path="url(#b943d8bf7d)"><path stroke-linecap="butt" transform="matrix(0.75, 0, 0, 0.75, 75.764611, 75.764606)" fill="none" stroke-linejoin="miter" d="M 149.641987 0.00135837 C 66.996148 0.00135837 0.00135237 66.996154 0.00135237 149.641993 C 0.00135237 232.282624 66.996148 299.282628 149.641987 299.282628 C 232.282618 299.282628 299.282622 232.282624 299.282622 149.641993 C 299.282622 66.996154 232.282618 0.00135837 149.641987 0.00135837 Z M 149.641987 0.00135837 " stroke="#00609e" stroke-width="8" stroke-opacity="1" stroke-miterlimit="4"/></g></g><path fill="#219dd7" d="M 203.734375 173.902344 L 205.695312 173.246094 L 187.765625 166.816406 L 169.792969 173.246094 L 180.007812 176.550781 C 179.9375 176.972656 179.878906 177.402344 179.878906 177.847656 C 179.878906 182.207031 183.402344 185.738281 187.75 185.738281 C 192.09375 185.738281 195.617188 182.207031 195.617188 177.847656 C 195.617188 177.410156 195.558594 176.984375 195.488281 176.5625 L 202.28125 174.363281 L 194.910156 171.820312 L 194.945312 171.128906 L 202.28125 173.519531 L 202.664062 173.632812 L 202.929688 173.710938 L 202.929688 175.441406 C 202.738281 175.753906 202.546875 176.136719 202.546875 176.445312 C 202.546875 177.023438 202.894531 177.445312 203.351562 177.445312 C 203.777344 177.445312 204.121094 177.023438 204.121094 176.445312 C 204.121094 176.136719 203.929688 175.785156 203.734375 175.480469 Z M 203.734375 173.902344 " fill-opacity="1" fill-rule="nonzero"/><g clip-path="url(#67cd9cfa64)"><path fill="#025699" d="M 190.730469 252.183594 C 189.921875 248.605469 189.691406 245.253906 189.808594 241.792969 C 190.378906 226.71875 198.960938 213.71875 208.457031 204.257812 C 217.597656 195.148438 227.585938 189.324219 232.085938 188.09375 C 233.257812 187.769531 233.925781 187.648438 234.371094 188.089844 C 234.820312 188.570312 234.746094 189.164062 234.488281 190.132812 C 233.0625 195.46875 223.304688 208.558594 216.871094 213.152344 C 256.183594 202.992188 236.578125 153.894531 235.828125 149.957031 C 235.652344 149.050781 235.734375 148.507812 236.214844 148.304688 C 236.699219 148.101562 237.042969 148.21875 237.480469 148.59375 C 238.214844 149.410156 262.472656 176.277344 244.613281 216.101562 C 242.214844 221.457031 228.3125 249.304688 190.730469 252.183594 Z M 190.730469 252.183594 " fill-opacity="1" fill-rule="nonzero"/></g><g clip-path="url(#9fb4d8b077)"><path fill="#025699" d="M 184.265625 252.183594 C 185.070312 248.605469 185.300781 245.253906 185.1875 241.792969 C 184.613281 226.71875 176.035156 213.71875 166.542969 204.257812 C 157.398438 195.148438 147.410156 189.324219 142.914062 188.09375 C 141.738281 187.769531 141.070312 187.648438 140.625 188.089844 C 140.179688 188.570312 140.253906 189.164062 140.511719 190.132812 C 141.9375 195.46875 151.695312 208.558594 158.128906 213.152344 C 118.8125 202.992188 138.421875 153.894531 139.171875 149.957031 C 139.34375 149.050781 139.261719 148.507812 138.78125 148.304688 C 138.292969 148.101562 137.957031 148.21875 137.515625 148.59375 C 136.78125 149.410156 112.523438 176.277344 130.378906 216.101562 C 132.785156 221.457031 146.683594 249.304688 184.265625 252.183594 Z M 184.265625 252.183594 " fill-opacity="1" fill-rule="nonzero"/></g><path fill="#219dd7" d="M 233.503906 182.835938 C 233.503906 182.835938 201.3125 178.242188 187.5 196.054688 C 174.078125 179.066406 141.96875 181.125 141.96875 181.125 C 192.277344 204.4375 187.5 236.265625 187.5 236.265625 C 187.5 236.265625 186.46875 197.710938 233.503906 182.835938 Z M 233.503906 182.835938 " fill-opacity="1" fill-rule="nonzero"/><g clip-path="url(#a169272e7d)"><path fill="#f69220" d="M 215.90625 174.007812 C 215.859375 173.347656 215.800781 172.6875 215.710938 172.039062 L 215.710938 172.042969 L 238.113281 164.042969 L 214.480469 166.882812 C 214.277344 166.289062 214.164062 165.652344 213.921875 165.074219 L 227.441406 156.808594 L 212.429688 162.261719 C 212.023438 161.527344 211.683594 160.742188 211.214844 160.050781 L 228.695312 142.867188 L 208.007812 156.152344 C 208.355469 156.511719 207.519531 155.730469 206.71875 155.007812 L 215.285156 141.605469 L 204.230469 152.949219 C 203.628906 152.511719 202.992188 152.136719 202.351562 151.75 L 210.34375 129.046875 L 197.757812 149.484375 C 197.175781 149.265625 196.570312 149.109375 195.972656 148.929688 L 197.898438 133.082031 L 192.789062 148.082031 C 192.128906 147.960938 191.4375 147.949219 190.761719 147.878906 L 188.183594 123.1875 L 185.441406 147.804688 C 186.214844 147.742188 184.902344 147.789062 183.507812 147.996094 L 178.421875 133.082031 L 180.320312 148.679688 C 179.644531 148.867188 178.976562 149.070312 178.324219 149.304688 L 166.074219 129.304688 L 173.730469 151.429688 C 173.085938 151.800781 172.402344 152.097656 171.792969 152.511719 L 161.042969 141.605469 L 169.320312 154.558594 C 168.625 155.160156 167.917969 155.734375 167.289062 156.394531 L 147.511719 143.742188 L 164.058594 160.421875 C 163.730469 160.921875 163.5 161.484375 163.203125 162.007812 L 148.882812 156.808594 L 161.707031 164.769531 C 161.394531 165.496094 161.21875 166.285156 160.964844 167.039062 L 137.414062 164.167969 L 159.785156 172 C 159.785156 172 159.789062 172 159.789062 172 C 159.691406 172.6875 159.625 173.390625 159.578125 174.09375 L 144.570312 175.683594 L 159.507812 177.265625 C 159.464844 176.851562 159.589844 178.230469 159.714844 179.332031 C 159.910156 163.953125 172.367188 151.542969 187.742188 151.542969 C 203.121094 151.542969 215.582031 163.957031 215.773438 179.332031 C 215.847656 178.675781 215.902344 178.011719 215.972656 177.355469 L 231.75 175.683594 Z M 215.90625 174.007812 " fill-opacity="1" fill-rule="nonzero"/></g><g clip-path="url(#fd2e3ceca9)"><g clip-path="url(#ac67560c38)"><path stroke-linecap="butt" transform="matrix(0.75, 0, 0, 0.75, 106.147394, 106.14739)" fill="none" stroke-linejoin="miter" d="M 108.470148 0.00139689 C 48.563894 0.00139689 0.00139089 48.5639 0.00139089 108.470154 C 0.00139089 168.376408 48.563894 216.938911 108.470148 216.938911 C 168.376402 216.938911 216.938905 168.376408 216.938905 108.470154 C 216.938905 48.5639 168.376402 0.00139689 108.470148 0.00139689 Z M 108.470148 0.00139689 " stroke="#00609e" stroke-width="8" stroke-opacity="1" stroke-miterlimit="4"/></g></g><g fill="#eb6a18" fill-opacity="1"><g transform="translate(104.478, 175.475977)"><g><path d="M 0.53125 -6.34375 L -1.5625 -5.890625 L -1.828125 -2.75 L 0.171875 -1.96875 L 0 0 L -8.359375 -3.765625 L -8.171875 -5.984375 L 0.703125 -8.296875 Z M -3.109375 -5.578125 L -5.171875 -5.125 C -5.316406 -5.09375 -5.492188 -5.054688 -5.703125 -5.015625 C -5.921875 -4.972656 -6.132812 -4.925781 -6.34375 -4.875 C -6.5625 -4.820312 -6.753906 -4.785156 -6.921875 -4.765625 C -6.765625 -4.703125 -6.570312 -4.625 -6.34375 -4.53125 C -6.125 -4.445312 -5.910156 -4.367188 -5.703125 -4.296875 C -5.492188 -4.222656 -5.34375 -4.164062 -5.25 -4.125 L -3.296875 -3.328125 Z M -3.109375 -5.578125 "/></g></g></g><g fill="#eb6a18" fill-opacity="1"><g transform="translate(105.352503, 166.172704)"><g><path d="M 0.828125 -4.328125 L 0.484375 -2.53125 L -6.484375 -3.875 L -6.921875 -1.578125 L -8.40625 -1.859375 L -7.1875 -8.25 L -5.703125 -7.96875 L -6.140625 -5.671875 Z M 0.828125 -4.328125 "/></g></g></g><g fill="#eb6a18" fill-opacity="1"><g transform="translate(106.915668, 158.293446)"><g><path d="M 1.25 -4.21875 L 0.734375 -2.46875 L -6.0625 -4.46875 L -6.734375 -2.21875 L -8.203125 -2.65625 L -6.359375 -8.90625 L -4.890625 -8.46875 L -5.546875 -6.21875 Z M 1.25 -4.21875 "/></g></g></g><g fill="#eb6a18" fill-opacity="1"><g transform="translate(109.2431, 150.602473)"><g><path d="M 2.25 -5.609375 L 0.40625 -1 L -7.578125 -4.21875 L -5.734375 -8.828125 L -4.34375 -8.265625 L -5.515625 -5.359375 L -3.765625 -4.65625 L -2.671875 -7.359375 L -1.296875 -6.796875 L -2.390625 -4.09375 L -0.328125 -3.265625 L 0.84375 -6.171875 Z M 2.25 -5.609375 "/></g></g></g><g fill="#eb6a18" fill-opacity="1"><g transform="translate(112.255786, 143.344048)"><g><path d="M 1.9375 -3.859375 L 0.171875 -0.34375 L -0.75 -0.8125 L -0.71875 -1.953125 L -5.703125 -4.453125 L -6.609375 -3.734375 L -7.53125 -4.203125 L -5.765625 -7.71875 L -4.84375 -7.25 L -4.890625 -6.078125 L 0.09375 -3.578125 L 1.015625 -4.328125 Z M 1.9375 -3.859375 "/></g></g></g><g fill="#eb6a18" fill-opacity="1"><g transform="translate(114.758064, 138.180792)"><g><path d="M 4.671875 -7.359375 L 3.421875 -5.40625 L -4.078125 -5.734375 L -4.109375 -5.6875 C -3.753906 -5.476562 -3.398438 -5.269531 -3.046875 -5.0625 C -2.691406 -4.863281 -2.332031 -4.664062 -1.96875 -4.46875 L 1.453125 -2.296875 L 0.578125 -0.90625 L -6.6875 -5.515625 L -5.453125 -7.46875 L 1.984375 -7.171875 L 2.015625 -7.21875 C 1.671875 -7.40625 1.328125 -7.597656 0.984375 -7.796875 C 0.640625 -7.992188 0.296875 -8.195312 -0.046875 -8.40625 L -3.484375 -10.59375 L -2.59375 -11.96875 Z M 4.671875 -7.359375 "/></g></g></g><g fill="#eb6a18" fill-opacity="1"><g transform="translate(120.584854, 129.148664)"><g><path d="M 1.84375 -9.15625 C 2.96875 -8.226562 3.546875 -7.207031 3.578125 -6.09375 C 3.617188 -4.976562 3.171875 -3.851562 2.234375 -2.71875 L 0.6875 -0.828125 L -5.953125 -6.296875 L -4.234375 -8.390625 C -3.660156 -9.085938 -3.035156 -9.585938 -2.359375 -9.890625 C -1.691406 -10.203125 -1 -10.300781 -0.28125 -10.1875 C 0.425781 -10.082031 1.132812 -9.738281 1.84375 -9.15625 Z M 0.671875 -7.65625 C -0.0546875 -8.257812 -0.722656 -8.539062 -1.328125 -8.5 C -1.941406 -8.457031 -2.503906 -8.128906 -3.015625 -7.515625 L -3.640625 -6.765625 L 0.671875 -3.21875 L 1.171875 -3.8125 C 2.296875 -5.175781 2.128906 -6.457031 0.671875 -7.65625 Z M 0.671875 -7.65625 "/></g></g></g><g fill="#eb6a18" fill-opacity="1"><g transform="translate(126.951926, 121.557303)"><g><path d="M -3.390625 -8.703125 C -2.546875 -9.515625 -1.773438 -9.957031 -1.078125 -10.03125 C -0.378906 -10.101562 0.269531 -9.832031 0.875 -9.21875 C 1.144531 -8.925781 1.328125 -8.625 1.421875 -8.3125 C 1.523438 -8.007812 1.554688 -7.695312 1.515625 -7.375 C 1.484375 -7.050781 1.410156 -6.75 1.296875 -6.46875 L 5.734375 -5.53125 L 4.265625 -4.125 L 0.5 -5.09375 L -0.203125 -4.40625 L 2.09375 -2.015625 L 0.78125 -0.75 L -5.203125 -6.953125 Z M -2.4375 -7.515625 L -2.84375 -7.125 L -1.21875 -5.453125 L -0.796875 -5.875 C -0.359375 -6.289062 -0.117188 -6.660156 -0.078125 -6.984375 C -0.0351562 -7.316406 -0.148438 -7.628906 -0.421875 -7.921875 C -0.703125 -8.210938 -1.003906 -8.316406 -1.328125 -8.234375 C -1.648438 -8.160156 -2.019531 -7.921875 -2.4375 -7.515625 Z M -2.4375 -7.515625 "/></g></g></g><g fill="#eb6a18" fill-opacity="1"><g transform="translate(133.479311, 115.372937)"><g><path d="M 4.75 -3.734375 L 0.84375 -0.671875 L -4.484375 -7.4375 L -0.578125 -10.5 L 0.359375 -9.328125 L -2.109375 -7.390625 L -0.9375 -5.90625 L 1.359375 -7.71875 L 2.265625 -6.546875 L -0.03125 -4.734375 L 1.34375 -2.984375 L 3.8125 -4.921875 Z M 4.75 -3.734375 "/></g></g></g><g fill="#eb6a18" fill-opacity="1"><g transform="translate(139.726634, 110.582815)"><g/></g></g><g fill="#eb6a18" fill-opacity="1"><g transform="translate(144.066883, 107.684563)"><g><path d="M 0.9375 -0.53125 L -3.25 -8.0625 L -1.640625 -8.9375 L 1.8125 -2.734375 L 4.859375 -4.4375 L 5.59375 -3.109375 Z M 0.9375 -0.53125 "/></g></g></g><g fill="#eb6a18" fill-opacity="1"><g transform="translate(151.045917, 103.914566)"><g><path d="M -0.515625 -9.28125 C -0.367188 -8.5 -0.289062 -7.503906 -0.28125 -6.296875 L -1.453125 -5.75 C -1.703125 -6.945312 -1.9375 -7.925781 -2.15625 -8.6875 L -0.65625 -9.375 Z M -1.625 -11.140625 Z M -0.0625 -8.21875 Z M -0.0625 -8.21875 "/></g></g></g><g fill="#eb6a18" fill-opacity="1"><g transform="translate(155.738323, 101.761428)"><g><path d="M 5.6875 -2.078125 L 1.015625 -0.375 L -1.9375 -8.46875 L 2.734375 -10.171875 L 3.25 -8.75 L 0.296875 -7.671875 L 0.953125 -5.90625 L 3.6875 -6.90625 L 4.1875 -5.515625 L 1.453125 -4.515625 L 2.21875 -2.421875 L 5.171875 -3.5 Z M 5.6875 -2.078125 "/></g></g></g><g fill="#eb6a18" fill-opacity="1"><g transform="translate(163.060214, 99.110915)"><g><path d="M 7.796875 -1.96875 L 5.765625 -1.46875 L 3.03125 -4.125 L 1.890625 -0.484375 L 0 0 L 1.671875 -5 L -1.921875 -8.390625 L 0.03125 -8.890625 L 2.5625 -6.34375 L 3.578125 -9.78125 L 5.5 -10.265625 L 3.921875 -5.46875 Z M 7.796875 -1.96875 "/></g></g></g><g fill="#eb6a18" fill-opacity="1"><g transform="translate(171.853303, 96.950263)"><g><path d="M 3.671875 -7.8125 C 2.984375 -7.707031 2.488281 -7.367188 2.1875 -6.796875 C 1.894531 -6.222656 1.816406 -5.488281 1.953125 -4.59375 C 2.078125 -3.6875 2.34375 -3.007812 2.75 -2.5625 C 3.164062 -2.113281 3.742188 -1.945312 4.484375 -2.0625 C 4.835938 -2.101562 5.179688 -2.1875 5.515625 -2.3125 C 5.859375 -2.445312 6.222656 -2.613281 6.609375 -2.8125 L 6.828125 -1.296875 C 6.472656 -1.085938 6.117188 -0.921875 5.765625 -0.796875 C 5.410156 -0.671875 5.003906 -0.578125 4.546875 -0.515625 C 3.660156 -0.390625 2.90625 -0.46875 2.28125 -0.75 C 1.664062 -1.039062 1.175781 -1.492188 0.8125 -2.109375 C 0.457031 -2.722656 0.21875 -3.46875 0.09375 -4.34375 C -0.0195312 -5.195312 0.0234375 -5.976562 0.234375 -6.6875 C 0.453125 -7.394531 0.832031 -7.976562 1.375 -8.4375 C 1.914062 -8.894531 2.613281 -9.1875 3.46875 -9.3125 C 3.894531 -9.363281 4.328125 -9.367188 4.765625 -9.328125 C 5.210938 -9.285156 5.640625 -9.195312 6.046875 -9.0625 L 5.671875 -7.515625 C 5.328125 -7.628906 4.988281 -7.71875 4.65625 -7.78125 C 4.320312 -7.84375 3.992188 -7.851562 3.671875 -7.8125 Z M 3.671875 -7.8125 "/></g></g></g><g fill="#eb6a18" fill-opacity="1"><g transform="translate(180.498005, 95.800828)"><g><path d="M 6.046875 -0.25 L 1.078125 -0.046875 L 0.71875 -8.65625 L 5.6875 -8.859375 L 5.75 -7.359375 L 2.609375 -7.234375 L 2.6875 -5.34375 L 5.609375 -5.453125 L 5.671875 -3.96875 L 2.75 -3.859375 L 2.84375 -1.640625 L 5.984375 -1.765625 Z M 6.046875 -0.25 "/></g></g></g><g fill="#eb6a18" fill-opacity="1"><g transform="translate(188.305904, 95.528908)"><g><path d="M 1.078125 0.0625 L 1.546875 -8.53125 L 3.375 -8.4375 L 2.984375 -1.359375 L 6.46875 -1.171875 L 6.390625 0.34375 Z M 1.078125 0.0625 "/></g></g></g><g fill="#eb6a18" fill-opacity="1"><g transform="translate(196.16323, 96.001617)"><g><path d="M 1.0625 0.15625 L 2.34375 -8.359375 L 4.15625 -8.078125 L 3.09375 -1.0625 L 6.546875 -0.546875 L 6.328125 0.953125 Z M 1.0625 0.15625 "/></g></g></g><g fill="#eb6a18" fill-opacity="1"><g transform="translate(203.941246, 97.219527)"><g><path d="M 5.875 1.453125 L 1.046875 0.265625 L 3.125 -8.09375 L 7.953125 -6.90625 L 7.59375 -5.453125 L 4.546875 -6.203125 L 4.09375 -4.359375 L 6.921875 -3.65625 L 6.5625 -2.21875 L 3.734375 -2.921875 L 3.1875 -0.765625 L 6.234375 -0.015625 Z M 5.875 1.453125 "/></g></g></g><g fill="#eb6a18" fill-opacity="1"><g transform="translate(211.470767, 99.060485)"><g><path d="M 8.171875 3.03125 L 6 2.234375 L 4.75 -5.1875 L 4.71875 -5.203125 C 4.582031 -4.816406 4.453125 -4.425781 4.328125 -4.03125 C 4.203125 -3.632812 4.078125 -3.238281 3.953125 -2.84375 L 2.546875 0.953125 L 1.015625 0.375 L 4.015625 -7.703125 L 6.171875 -6.890625 L 7.421875 0.46875 L 7.46875 0.484375 C 7.582031 0.0976562 7.703125 -0.28125 7.828125 -0.65625 C 7.960938 -1.03125 8.09375 -1.40625 8.21875 -1.78125 L 9.640625 -5.609375 L 11.171875 -5.046875 Z M 8.171875 3.03125 "/></g></g></g><g fill="#eb6a18" fill-opacity="1"><g transform="translate(221.528916, 102.922186)"><g><path d="M 7.5 -4.265625 C 6.875 -4.585938 6.273438 -4.597656 5.703125 -4.296875 C 5.140625 -3.992188 4.65625 -3.441406 4.25 -2.640625 C 3.832031 -1.828125 3.660156 -1.117188 3.734375 -0.515625 C 3.816406 0.0859375 4.191406 0.5625 4.859375 0.90625 C 5.171875 1.0625 5.503906 1.1875 5.859375 1.28125 C 6.210938 1.375 6.597656 1.445312 7.015625 1.5 L 6.328125 2.859375 C 5.921875 2.835938 5.535156 2.769531 5.171875 2.65625 C 4.804688 2.550781 4.421875 2.394531 4.015625 2.1875 C 3.210938 1.78125 2.640625 1.28125 2.296875 0.6875 C 1.960938 0.101562 1.828125 -0.539062 1.890625 -1.25 C 1.953125 -1.96875 2.179688 -2.722656 2.578125 -3.515625 C 2.972656 -4.285156 3.457031 -4.894531 4.03125 -5.34375 C 4.613281 -5.789062 5.257812 -6.046875 5.96875 -6.109375 C 6.6875 -6.179688 7.429688 -6.019531 8.203125 -5.625 C 8.578125 -5.425781 8.929688 -5.179688 9.265625 -4.890625 C 9.597656 -4.597656 9.898438 -4.273438 10.171875 -3.921875 L 8.96875 -2.875 C 8.75 -3.164062 8.519531 -3.429688 8.28125 -3.671875 C 8.039062 -3.921875 7.78125 -4.117188 7.5 -4.265625 Z M 7.5 -4.265625 "/></g></g></g><g fill="#eb6a18" fill-opacity="1"><g transform="translate(229.258502, 106.959922)"><g><path d="M 5.078125 3.28125 L 0.90625 0.578125 L 5.578125 -6.65625 L 9.75 -3.953125 L 8.9375 -2.6875 L 6.296875 -4.390625 L 5.265625 -2.8125 L 7.71875 -1.234375 L 6.921875 0.015625 L 4.46875 -1.5625 L 3.265625 0.296875 L 5.90625 2 Z M 5.078125 3.28125 "/></g></g></g><g fill="#eb6a18" fill-opacity="1"><g transform="translate(235.821214, 111.307723)"><g/></g></g><g fill="#eb6a18" fill-opacity="1"><g transform="translate(239.977335, 114.466078)"><g><path d="M 4.5 4.03125 L 0.796875 0.71875 L 6.546875 -5.6875 L 10.25 -2.375 L 9.25 -1.265625 L 6.90625 -3.359375 L 5.640625 -1.953125 L 7.828125 0 L 6.84375 1.109375 L 4.65625 -0.84375 L 3.171875 0.8125 L 5.515625 2.90625 Z M 4.5 4.03125 "/></g></g></g><g fill="#eb6a18" fill-opacity="1"><g transform="translate(245.768345, 119.619155)"><g><path d="M 5.796875 6.515625 L 4.265625 4.78125 L 6.625 -2.34375 L 6.59375 -2.375 C 6.300781 -2.113281 6.003906 -1.835938 5.703125 -1.546875 C 5.410156 -1.253906 5.117188 -0.957031 4.828125 -0.65625 L 1.8125 2.03125 L 0.71875 0.8125 L 7.140625 -4.921875 L 8.671875 -3.203125 L 6.34375 3.875 L 6.375 3.921875 C 6.65625 3.640625 6.9375 3.359375 7.21875 3.078125 C 7.507812 2.804688 7.796875 2.535156 8.078125 2.265625 L 11.125 -0.453125 L 12.21875 0.78125 Z M 5.796875 6.515625 "/></g></g></g><g fill="#eb6a18" fill-opacity="1"><g transform="translate(252.842826, 127.774842)"><g><path d="M 5.515625 3.640625 C 4.890625 4.078125 4.226562 4.207031 3.53125 4.03125 C 2.84375 3.851562 2.203125 3.347656 1.609375 2.515625 C 1.085938 1.773438 0.765625 1.015625 0.640625 0.234375 L 2.03125 -0.75 C 2.113281 -0.320312 2.222656 0.113281 2.359375 0.5625 C 2.503906 1.007812 2.703125 1.410156 2.953125 1.765625 C 3.210938 2.128906 3.46875 2.332031 3.71875 2.375 C 3.96875 2.425781 4.195312 2.378906 4.40625 2.234375 C 4.582031 2.109375 4.691406 1.941406 4.734375 1.734375 C 4.785156 1.535156 4.789062 1.289062 4.75 1 C 4.707031 0.71875 4.65625 0.398438 4.59375 0.046875 C 4.5625 -0.160156 4.53125 -0.398438 4.5 -0.671875 C 4.476562 -0.941406 4.484375 -1.21875 4.515625 -1.5 C 4.546875 -1.789062 4.632812 -2.070312 4.78125 -2.34375 C 4.9375 -2.613281 5.175781 -2.863281 5.5 -3.09375 C 6.125 -3.539062 6.765625 -3.675781 7.421875 -3.5 C 8.078125 -3.320312 8.664062 -2.863281 9.1875 -2.125 C 9.445312 -1.757812 9.648438 -1.382812 9.796875 -1 C 9.953125 -0.613281 10.078125 -0.179688 10.171875 0.296875 L 8.671875 0.640625 C 8.578125 0.234375 8.472656 -0.125 8.359375 -0.4375 C 8.253906 -0.75 8.109375 -1.035156 7.921875 -1.296875 C 7.710938 -1.585938 7.488281 -1.757812 7.25 -1.8125 C 7.019531 -1.875 6.796875 -1.832031 6.578125 -1.6875 C 6.335938 -1.507812 6.222656 -1.253906 6.234375 -0.921875 C 6.242188 -0.597656 6.296875 -0.144531 6.390625 0.4375 C 6.484375 0.925781 6.523438 1.359375 6.515625 1.734375 C 6.515625 2.117188 6.4375 2.46875 6.28125 2.78125 C 6.132812 3.09375 5.878906 3.378906 5.515625 3.640625 Z M 5.515625 3.640625 "/></g></g></g><g fill="#eb6a18" fill-opacity="1"><g transform="translate(257.263488, 134.086827)"><g><path d="M 3.015625 5.234375 L 0.53125 0.9375 L 7.984375 -3.359375 L 10.46875 0.9375 L 9.171875 1.6875 L 7.609375 -1.03125 L 5.96875 -0.09375 L 7.421875 2.4375 L 6.140625 3.1875 L 4.6875 0.65625 L 2.765625 1.765625 L 4.328125 4.484375 Z M 3.015625 5.234375 "/></g></g></g><g fill="#eb6a18" fill-opacity="1"><g transform="translate(261.189212, 140.735976)"><g><path d="M 1.84375 4.359375 L 7.25 -0.203125 L 7.234375 -0.234375 C 7.097656 -0.160156 6.882812 -0.0546875 6.59375 0.078125 C 6.300781 0.210938 5.984375 0.359375 5.640625 0.515625 C 5.304688 0.679688 5.007812 0.820312 4.75 0.9375 L 1.0625 2.5 L 0.421875 1 L 8.34375 -2.359375 L 9.328125 -0.0625 L 4.0625 4.359375 L 4.078125 4.390625 L 10.96875 3.8125 L 11.953125 6.125 L 4.03125 9.484375 L 3.359375 7.90625 L 7.109375 6.3125 C 7.359375 6.207031 7.648438 6.085938 7.984375 5.953125 C 8.316406 5.828125 8.628906 5.707031 8.921875 5.59375 C 9.222656 5.476562 9.453125 5.394531 9.609375 5.34375 L 9.59375 5.296875 L 2.5 5.890625 Z M 1.84375 4.359375 "/></g></g></g><g fill="#eb6a18" fill-opacity="1"><g transform="translate(265.84559, 152.116909)"><g><path d="M 8.59375 -1.296875 L 9.3125 1.296875 C 9.613281 2.390625 9.6875 3.265625 9.53125 3.921875 C 9.382812 4.585938 8.921875 5.03125 8.140625 5.25 C 7.671875 5.382812 7.242188 5.382812 6.859375 5.25 C 6.472656 5.113281 6.1875 4.851562 6 4.46875 L 5.9375 4.484375 C 5.957031 4.773438 5.929688 5.050781 5.859375 5.3125 C 5.796875 5.582031 5.644531 5.816406 5.40625 6.015625 C 5.175781 6.222656 4.847656 6.390625 4.421875 6.515625 C 3.671875 6.722656 3.003906 6.613281 2.421875 6.1875 C 1.835938 5.757812 1.414062 5.082031 1.15625 4.15625 L 0.296875 1.03125 Z M 5.796875 1.390625 L 6.078125 2.421875 C 6.222656 2.929688 6.398438 3.257812 6.609375 3.40625 C 6.828125 3.5625 7.09375 3.59375 7.40625 3.5 C 7.726562 3.414062 7.921875 3.238281 7.984375 2.96875 C 8.054688 2.695312 8.023438 2.3125 7.890625 1.8125 L 7.625 0.875 Z M 4.390625 1.78125 L 2.234375 2.390625 L 2.5625 3.53125 C 2.707031 4.0625 2.910156 4.40625 3.171875 4.5625 C 3.429688 4.71875 3.734375 4.75 4.078125 4.65625 C 4.390625 4.570312 4.609375 4.390625 4.734375 4.109375 C 4.867188 3.835938 4.859375 3.425781 4.703125 2.875 Z M 4.390625 1.78125 "/></g></g></g><g fill="#eb6a18" fill-opacity="1"><g transform="translate(268.225698, 160.932533)"><g><path d="M 0.1875 1.0625 L 8.671875 -0.390625 L 8.984375 1.40625 L 2 2.609375 L 2.59375 6.0625 L 1.09375 6.3125 Z M 0.1875 1.0625 "/></g></g></g><g fill="#eb6a18" fill-opacity="1"><g transform="translate(269.511409, 168.698933)"><g><path d="M 0.453125 6.03125 L 0.078125 1.078125 L 8.65625 0.421875 L 9.03125 5.375 L 7.546875 5.5 L 7.3125 2.359375 L 5.421875 2.5 L 5.640625 5.421875 L 4.15625 5.53125 L 3.9375 2.609375 L 1.734375 2.78125 L 1.96875 5.921875 Z M 0.453125 6.03125 "/></g></g></g><g fill="#00609e" fill-opacity="1"><g transform="translate(91.268408, 208.253374)"><g><path d="M 6.046875 10.828125 C 5.617188 10.929688 5.171875 10.914062 4.703125 10.78125 C 4.234375 10.65625 3.765625 10.414062 3.296875 10.0625 C 2.835938 9.71875 2.429688 9.269531 2.078125 8.71875 C 1.722656 8.175781 1.457031 7.523438 1.28125 6.765625 C 1.050781 5.816406 0.992188 4.929688 1.109375 4.109375 C 1.234375 3.296875 1.507812 2.554688 1.9375 1.890625 C 2.375 1.222656 2.9375 0.65625 3.625 0.1875 C 4.320312 -0.269531 5.117188 -0.601562 6.015625 -0.8125 C 6.742188 -0.988281 7.453125 -1.054688 8.140625 -1.015625 C 8.835938 -0.984375 9.488281 -0.851562 10.09375 -0.625 C 10.695312 -0.40625 11.242188 -0.0976562 11.734375 0.296875 C 12.234375 0.691406 12.660156 1.15625 13.015625 1.6875 C 13.367188 2.226562 13.625 2.832031 13.78125 3.5 C 13.875 3.90625 13.921875 4.257812 13.921875 4.5625 C 13.929688 4.875 13.921875 5.140625 13.890625 5.359375 C 13.867188 5.585938 13.835938 5.773438 13.796875 5.921875 C 13.765625 6.078125 13.765625 6.203125 13.796875 6.296875 C 13.816406 6.410156 13.863281 6.5 13.9375 6.5625 C 14.019531 6.625 14.101562 6.675781 14.1875 6.71875 C 14.269531 6.769531 14.347656 6.828125 14.421875 6.890625 C 14.492188 6.960938 14.546875 7.0625 14.578125 7.1875 C 14.609375 7.300781 14.59375 7.410156 14.53125 7.515625 C 14.476562 7.617188 14.367188 7.71875 14.203125 7.8125 L 11.421875 9.40625 C 11.296875 9.488281 11.160156 9.503906 11.015625 9.453125 C 10.867188 9.398438 10.757812 9.304688 10.6875 9.171875 C 10.625 9.015625 10.601562 8.859375 10.625 8.703125 C 10.644531 8.554688 10.738281 8.425781 10.90625 8.3125 C 11.507812 7.851562 11.957031 7.394531 12.25 6.9375 C 12.550781 6.488281 12.734375 6.039062 12.796875 5.59375 C 12.867188 5.15625 12.847656 4.710938 12.734375 4.265625 C 12.585938 3.660156 12.269531 3.175781 11.78125 2.8125 C 11.300781 2.445312 10.691406 2.21875 9.953125 2.125 C 9.210938 2.039062 8.375 2.109375 7.4375 2.328125 C 6.332031 2.597656 5.4375 2.976562 4.75 3.46875 C 4.070312 3.96875 3.609375 4.546875 3.359375 5.203125 C 3.117188 5.867188 3.082031 6.566406 3.25 7.296875 C 3.414062 7.972656 3.726562 8.535156 4.1875 8.984375 C 4.644531 9.429688 5.21875 9.738281 5.90625 9.90625 C 6.082031 9.945312 6.207031 10.007812 6.28125 10.09375 C 6.363281 10.1875 6.398438 10.285156 6.390625 10.390625 C 6.398438 10.617188 6.285156 10.765625 6.046875 10.828125 Z M 6.046875 10.828125 "/></g></g></g><g fill="#00609e" fill-opacity="1"><g transform="translate(94.398564, 221.249614)"><g><path d="M 14.265625 1.796875 C 14.617188 2.703125 14.796875 3.582031 14.796875 4.4375 C 14.804688 5.300781 14.644531 6.097656 14.3125 6.828125 C 13.988281 7.566406 13.507812 8.222656 12.875 8.796875 C 12.25 9.367188 11.484375 9.832031 10.578125 10.1875 C 9.742188 10.53125 8.910156 10.707031 8.078125 10.71875 C 7.242188 10.738281 6.457031 10.59375 5.71875 10.28125 C 4.976562 9.976562 4.3125 9.523438 3.71875 8.921875 C 3.132812 8.316406 2.660156 7.5625 2.296875 6.65625 C 1.929688 5.75 1.75 4.867188 1.75 4.015625 C 1.75 3.160156 1.910156 2.367188 2.234375 1.640625 C 2.554688 0.910156 3.035156 0.257812 3.671875 -0.3125 C 4.304688 -0.882812 5.078125 -1.351562 5.984375 -1.71875 C 6.816406 -2.050781 7.648438 -2.226562 8.484375 -2.25 C 9.316406 -2.269531 10.097656 -2.125 10.828125 -1.8125 C 11.566406 -1.507812 12.234375 -1.054688 12.828125 -0.453125 C 13.421875 0.140625 13.898438 0.890625 14.265625 1.796875 Z M 7.4375 7.6875 C 8.164062 7.40625 8.84375 7.066406 9.46875 6.671875 C 10.09375 6.273438 10.648438 5.851562 11.140625 5.40625 C 11.640625 4.957031 12.050781 4.5 12.375 4.03125 C 12.695312 3.570312 12.910156 3.128906 13.015625 2.703125 C 13.128906 2.273438 13.117188 1.890625 12.984375 1.546875 C 12.734375 0.929688 12.269531 0.550781 11.59375 0.40625 C 10.925781 0.269531 10.101562 0.398438 9.125 0.796875 C 8.394531 1.085938 7.71875 1.429688 7.09375 1.828125 C 6.46875 2.222656 5.90625 2.644531 5.40625 3.09375 C 4.914062 3.539062 4.503906 3.992188 4.171875 4.453125 C 3.847656 4.921875 3.628906 5.367188 3.515625 5.796875 C 3.410156 6.222656 3.425781 6.601562 3.5625 6.9375 C 3.820312 7.570312 4.285156 7.953125 4.953125 8.078125 C 5.628906 8.210938 6.457031 8.082031 7.4375 7.6875 Z M 7.4375 7.6875 "/></g></g></g><g fill="#00609e" fill-opacity="1"><g transform="translate(99.961072, 235.242017)"><g><path d="M 2.703125 3.40625 C 2.554688 3.5 2.414062 3.523438 2.28125 3.484375 C 2.15625 3.441406 2.035156 3.328125 1.921875 3.140625 L 0.515625 0.859375 C 0.398438 0.671875 0.351562 0.507812 0.375 0.375 C 0.40625 0.238281 0.484375 0.128906 0.609375 0.046875 C 0.742188 -0.0351562 0.867188 -0.0625 0.984375 -0.03125 C 1.097656 -0.0078125 1.222656 0.046875 1.359375 0.140625 L 1.5625 0.3125 C 1.738281 0.4375 1.914062 0.515625 2.09375 0.546875 C 2.28125 0.578125 2.488281 0.535156 2.71875 0.421875 L 9.859375 -3.171875 C 10.128906 -3.304688 10.304688 -3.441406 10.390625 -3.578125 C 10.484375 -3.722656 10.507812 -3.890625 10.46875 -4.078125 L 10.375 -4.46875 C 10.3125 -4.769531 10.394531 -4.992188 10.625 -5.140625 C 10.757812 -5.210938 10.890625 -5.222656 11.015625 -5.171875 C 11.148438 -5.117188 11.269531 -5.003906 11.375 -4.828125 L 12.90625 -2.328125 C 13.070312 -2.066406 13.148438 -1.820312 13.140625 -1.59375 C 13.128906 -1.375 13 -1.097656 12.75 -0.765625 L 8.703125 4.625 L 15.25 3.40625 C 15.644531 3.320312 15.953125 3.328125 16.171875 3.421875 C 16.390625 3.515625 16.585938 3.703125 16.765625 3.984375 L 18.3125 6.5 C 18.425781 6.6875 18.472656 6.847656 18.453125 6.984375 C 18.429688 7.117188 18.351562 7.222656 18.21875 7.296875 C 17.988281 7.441406 17.757812 7.425781 17.53125 7.25 L 17.21875 6.984375 C 17.070312 6.847656 16.9375 6.773438 16.8125 6.765625 C 16.695312 6.765625 16.546875 6.832031 16.359375 6.96875 L 9.40625 11.921875 C 9.238281 12.035156 9.132812 12.140625 9.09375 12.234375 C 9.050781 12.335938 9.054688 12.476562 9.109375 12.65625 L 9.1875 13.046875 C 9.25 13.296875 9.171875 13.488281 8.953125 13.625 C 8.816406 13.707031 8.675781 13.726562 8.53125 13.6875 C 8.394531 13.65625 8.269531 13.546875 8.15625 13.359375 L 5.796875 9.5 C 5.679688 9.300781 5.632812 9.128906 5.65625 8.984375 C 5.675781 8.847656 5.75 8.738281 5.875 8.65625 C 5.988281 8.59375 6.097656 8.5625 6.203125 8.5625 C 6.316406 8.570312 6.4375 8.628906 6.5625 8.734375 L 6.875 9 C 7.03125 9.132812 7.160156 9.203125 7.265625 9.203125 C 7.378906 9.210938 7.515625 9.171875 7.671875 9.078125 L 13.203125 5.078125 L 5.4375 6.53125 C 5.195312 6.570312 4.992188 6.585938 4.828125 6.578125 C 4.671875 6.566406 4.550781 6.523438 4.46875 6.453125 C 4.382812 6.390625 4.304688 6.300781 4.234375 6.1875 C 4.148438 6.0625 4.09375 5.941406 4.0625 5.828125 C 4.03125 5.710938 4.046875 5.570312 4.109375 5.40625 C 4.171875 5.238281 4.289062 5.046875 4.46875 4.828125 L 9.140625 -1.46875 L 3.34375 1.453125 C 3.113281 1.566406 2.972656 1.71875 2.921875 1.90625 C 2.878906 2.09375 2.867188 2.304688 2.890625 2.546875 L 2.9375 2.90625 C 2.945312 3.007812 2.929688 3.101562 2.890625 3.1875 C 2.859375 3.28125 2.796875 3.351562 2.703125 3.40625 Z M 2.703125 3.40625 "/></g></g></g><g fill="#00609e" fill-opacity="1"><g transform="translate(109.405667, 250.244765)"><g><path d="M 13.890625 4.3125 C 13.304688 4.8125 12.671875 5.09375 11.984375 5.15625 C 11.304688 5.226562 10.609375 5.082031 9.890625 4.71875 C 9.179688 4.351562 8.492188 3.785156 7.828125 3.015625 C 7.609375 2.753906 7.410156 2.488281 7.234375 2.21875 C 7.054688 1.945312 6.90625 1.679688 6.78125 1.421875 L 4.875 3.046875 C 4.769531 3.140625 4.703125 3.242188 4.671875 3.359375 C 4.648438 3.472656 4.679688 3.597656 4.765625 3.734375 L 5.109375 4.3125 C 5.265625 4.59375 5.222656 4.832031 4.984375 5.03125 C 4.867188 5.132812 4.742188 5.175781 4.609375 5.15625 C 4.472656 5.132812 4.332031 5.039062 4.1875 4.875 L 0.984375 1.140625 C 0.828125 0.960938 0.75 0.804688 0.75 0.671875 C 0.75 0.535156 0.804688 0.414062 0.921875 0.3125 C 1.023438 0.226562 1.132812 0.179688 1.25 0.171875 C 1.375 0.160156 1.503906 0.191406 1.640625 0.265625 L 1.984375 0.5 C 2.242188 0.65625 2.472656 0.644531 2.671875 0.46875 L 9.359375 -5.265625 C 9.554688 -5.441406 9.597656 -5.671875 9.484375 -5.953125 L 9.3125 -6.34375 C 9.257812 -6.476562 9.242188 -6.601562 9.265625 -6.71875 C 9.285156 -6.832031 9.34375 -6.929688 9.4375 -7.015625 C 9.5625 -7.109375 9.691406 -7.144531 9.828125 -7.125 C 9.960938 -7.101562 10.109375 -7.003906 10.265625 -6.828125 L 13.21875 -3.390625 C 13.875 -2.628906 14.375 -1.878906 14.71875 -1.140625 C 15.0625 -0.410156 15.253906 0.285156 15.296875 0.953125 C 15.335938 1.628906 15.234375 2.25 14.984375 2.8125 C 14.742188 3.382812 14.378906 3.882812 13.890625 4.3125 Z M 12.046875 -3.109375 L 7.5 0.796875 C 7.644531 1.066406 7.832031 1.332031 8.0625 1.59375 C 8.382812 1.96875 8.75 2.234375 9.15625 2.390625 C 9.5625 2.554688 9.988281 2.59375 10.4375 2.5 C 10.894531 2.40625 11.351562 2.160156 11.8125 1.765625 C 12.332031 1.316406 12.695312 0.828125 12.90625 0.296875 C 13.125 -0.222656 13.1875 -0.742188 13.09375 -1.265625 C 13 -1.796875 12.75 -2.296875 12.34375 -2.765625 Z M 12.046875 -3.109375 "/></g></g></g><g fill="#00609e" fill-opacity="1"><g transform="translate(118.364692, 260.506821)"><g><path d="M 12.203125 -4.109375 L 11.796875 -4.296875 C 11.515625 -4.429688 11.289062 -4.398438 11.125 -4.203125 L 5.25 2.375 C 5.09375 2.550781 5.03125 2.71875 5.0625 2.875 C 5.09375 3.03125 5.195312 3.191406 5.375 3.359375 L 6.15625 4.0625 C 6.394531 4.269531 6.628906 4.414062 6.859375 4.5 C 7.085938 4.59375 7.351562 4.617188 7.65625 4.578125 C 7.96875 4.535156 8.335938 4.421875 8.765625 4.234375 L 9.984375 3.6875 C 10.160156 3.613281 10.316406 3.597656 10.453125 3.640625 C 10.597656 3.679688 10.71875 3.773438 10.8125 3.921875 C 10.90625 4.054688 10.9375 4.191406 10.90625 4.328125 C 10.875 4.460938 10.773438 4.59375 10.609375 4.71875 L 7.953125 6.4375 C 7.710938 6.601562 7.5 6.691406 7.3125 6.703125 C 7.132812 6.722656 6.957031 6.65625 6.78125 6.5 C 6.675781 6.40625 6.59375 6.289062 6.53125 6.15625 C 6.46875 6.019531 6.390625 5.875 6.296875 5.71875 C 6.210938 5.570312 6.082031 5.421875 5.90625 5.265625 L 1.125 1 C 0.945312 0.84375 0.847656 0.695312 0.828125 0.5625 C 0.804688 0.425781 0.847656 0.300781 0.953125 0.1875 C 1.046875 0.0820312 1.148438 0.0195312 1.265625 0 C 1.378906 -0.0195312 1.503906 -0.00390625 1.640625 0.046875 L 2.03125 0.234375 C 2.3125 0.359375 2.539062 0.320312 2.71875 0.125 L 8.59375 -6.453125 C 8.757812 -6.648438 8.765625 -6.878906 8.609375 -7.140625 L 8.390625 -7.5 C 8.316406 -7.632812 8.285156 -7.757812 8.296875 -7.875 C 8.304688 -7.988281 8.351562 -8.09375 8.4375 -8.1875 C 8.539062 -8.3125 8.660156 -8.367188 8.796875 -8.359375 C 8.929688 -8.359375 9.085938 -8.28125 9.265625 -8.125 L 12.71875 -5.046875 C 12.875 -4.898438 12.960938 -4.757812 12.984375 -4.625 C 13.003906 -4.5 12.960938 -4.375 12.859375 -4.25 C 12.773438 -4.15625 12.675781 -4.09375 12.5625 -4.0625 C 12.457031 -4.039062 12.335938 -4.054688 12.203125 -4.109375 Z M 12.203125 -4.109375 "/></g></g></g><g fill="#00609e" fill-opacity="1"><g transform="translate(127.441445, 268.560266)"><g><path d="M 7.34375 -9.1875 C 7.4375 -9.320312 7.546875 -9.394531 7.671875 -9.40625 C 7.804688 -9.425781 7.96875 -9.375 8.15625 -9.25 L 13.609375 -5.5 C 13.804688 -5.363281 13.984375 -5.273438 14.140625 -5.234375 C 14.296875 -5.203125 14.445312 -5.171875 14.59375 -5.140625 C 14.75 -5.109375 14.898438 -5.039062 15.046875 -4.9375 C 15.234375 -4.800781 15.332031 -4.644531 15.34375 -4.46875 C 15.363281 -4.300781 15.332031 -4.085938 15.25 -3.828125 L 14.46875 -1.375 C 14.34375 -1.019531 14.113281 -0.890625 13.78125 -0.984375 C 13.601562 -1.035156 13.472656 -1.128906 13.390625 -1.265625 C 13.304688 -1.398438 13.28125 -1.5625 13.3125 -1.75 C 13.382812 -2.25 13.414062 -2.675781 13.40625 -3.03125 C 13.394531 -3.394531 13.347656 -3.695312 13.265625 -3.9375 C 13.191406 -4.1875 13.070312 -4.398438 12.90625 -4.578125 C 12.738281 -4.765625 12.53125 -4.941406 12.28125 -5.109375 L 10.84375 -6.09375 L 8.328125 -2.421875 L 9.375 -1.703125 C 9.570312 -1.566406 9.742188 -1.484375 9.890625 -1.453125 C 10.035156 -1.421875 10.1875 -1.441406 10.34375 -1.515625 C 10.5 -1.585938 10.679688 -1.71875 10.890625 -1.90625 C 11.015625 -2.007812 11.140625 -2.066406 11.265625 -2.078125 C 11.390625 -2.097656 11.503906 -2.070312 11.609375 -2 C 11.734375 -1.9375 11.804688 -1.84375 11.828125 -1.71875 C 11.859375 -1.601562 11.84375 -1.484375 11.78125 -1.359375 L 10.828125 1.234375 C 10.703125 1.578125 10.5 1.707031 10.21875 1.625 C 10.0625 1.582031 9.941406 1.507812 9.859375 1.40625 C 9.785156 1.300781 9.75 1.171875 9.75 1.015625 C 9.757812 0.703125 9.742188 0.445312 9.703125 0.25 C 9.660156 0.0507812 9.582031 -0.113281 9.46875 -0.25 C 9.351562 -0.394531 9.179688 -0.550781 8.953125 -0.71875 L 7.734375 -1.546875 L 5.6875 1.421875 C 5.320312 1.953125 5.421875 2.410156 5.984375 2.796875 L 6.78125 3.34375 C 7.039062 3.53125 7.289062 3.664062 7.53125 3.75 C 7.78125 3.832031 8.046875 3.863281 8.328125 3.84375 C 8.617188 3.820312 8.945312 3.726562 9.3125 3.5625 C 9.6875 3.40625 10.125 3.171875 10.625 2.859375 C 10.925781 2.679688 11.203125 2.71875 11.453125 2.96875 C 11.566406 3.09375 11.625 3.226562 11.625 3.375 C 11.625 3.53125 11.546875 3.671875 11.390625 3.796875 L 9.15625 5.6875 C 8.925781 5.863281 8.722656 5.96875 8.546875 6 C 8.378906 6.039062 8.203125 5.992188 8.015625 5.859375 C 7.878906 5.773438 7.769531 5.671875 7.6875 5.546875 C 7.601562 5.429688 7.507812 5.304688 7.40625 5.171875 C 7.300781 5.046875 7.15625 4.914062 6.96875 4.78125 L 1.234375 0.84375 C 1.046875 0.71875 0.9375 0.585938 0.90625 0.453125 C 0.875 0.328125 0.898438 0.203125 0.984375 0.078125 C 1.054688 -0.0351562 1.144531 -0.113281 1.25 -0.15625 C 1.363281 -0.195312 1.492188 -0.195312 1.640625 -0.15625 L 2.03125 -0.015625 C 2.332031 0.0664062 2.554688 -0.00390625 2.703125 -0.234375 L 7.6875 -7.5 C 7.84375 -7.707031 7.828125 -7.929688 7.640625 -8.171875 L 7.375 -8.5 C 7.28125 -8.625 7.234375 -8.742188 7.234375 -8.859375 C 7.234375 -8.972656 7.269531 -9.082031 7.34375 -9.1875 Z M 7.34375 -9.1875 "/></g></g></g><g fill="#00609e" fill-opacity="1"><g transform="translate(137.892131, 275.714057)"><g><path d="M 11 3.421875 C 11.03125 3.640625 11.066406 3.816406 11.109375 3.953125 C 11.148438 4.097656 11.207031 4.21875 11.28125 4.3125 C 11.351562 4.40625 11.453125 4.507812 11.578125 4.625 C 11.679688 4.75 11.742188 4.867188 11.765625 4.984375 C 11.796875 5.097656 11.78125 5.210938 11.71875 5.328125 C 11.65625 5.472656 11.554688 5.5625 11.421875 5.59375 C 11.285156 5.625 11.125 5.59375 10.9375 5.5 L 6.421875 3.234375 C 6.222656 3.128906 6.097656 3.015625 6.046875 2.890625 C 5.992188 2.765625 6 2.628906 6.0625 2.484375 C 6.132812 2.359375 6.222656 2.273438 6.328125 2.234375 C 6.441406 2.191406 6.601562 2.179688 6.8125 2.203125 C 7.300781 2.296875 7.503906 2.023438 7.421875 1.390625 L 7.03125 -1.640625 L 4.140625 -0.25 C 3.816406 -0.101562 3.628906 0.046875 3.578125 0.203125 C 3.535156 0.359375 3.585938 0.519531 3.734375 0.6875 L 3.921875 0.84375 C 4.003906 0.945312 4.054688 1.046875 4.078125 1.140625 C 4.097656 1.242188 4.078125 1.347656 4.015625 1.453125 C 3.953125 1.585938 3.851562 1.675781 3.71875 1.71875 C 3.59375 1.757812 3.4375 1.734375 3.25 1.640625 L 0.8125 0.40625 C 0.613281 0.3125 0.484375 0.195312 0.421875 0.0625 C 0.367188 -0.0625 0.375 -0.195312 0.4375 -0.34375 C 0.5 -0.445312 0.578125 -0.519531 0.671875 -0.5625 C 0.773438 -0.601562 0.9375 -0.617188 1.15625 -0.609375 C 1.40625 -0.609375 1.640625 -0.628906 1.859375 -0.671875 C 2.085938 -0.710938 2.3125 -0.769531 2.53125 -0.84375 C 2.75 -0.925781 2.984375 -1.035156 3.234375 -1.171875 L 6.859375 -2.90625 L 6.140625 -8.609375 C 6.128906 -8.773438 6.101562 -8.914062 6.0625 -9.03125 C 6.03125 -9.144531 5.984375 -9.25 5.921875 -9.34375 C 5.867188 -9.4375 5.800781 -9.539062 5.71875 -9.65625 C 5.59375 -9.800781 5.519531 -9.921875 5.5 -10.015625 C 5.476562 -10.117188 5.492188 -10.226562 5.546875 -10.34375 C 5.617188 -10.476562 5.722656 -10.5625 5.859375 -10.59375 C 5.992188 -10.632812 6.160156 -10.601562 6.359375 -10.5 L 10.671875 -8.328125 C 10.878906 -8.234375 11.003906 -8.117188 11.046875 -7.984375 C 11.085938 -7.847656 11.070312 -7.71875 11 -7.59375 C 10.945312 -7.476562 10.875 -7.394531 10.78125 -7.34375 C 10.695312 -7.289062 10.59375 -7.273438 10.46875 -7.296875 L 10.15625 -7.359375 C 9.96875 -7.398438 9.835938 -7.378906 9.765625 -7.296875 C 9.703125 -7.210938 9.691406 -7.039062 9.734375 -6.78125 L 10.125 -3.671875 L 12.6875 -4.921875 C 12.976562 -5.066406 13.148438 -5.21875 13.203125 -5.375 C 13.265625 -5.53125 13.210938 -5.695312 13.046875 -5.875 L 12.828125 -6.09375 C 12.753906 -6.175781 12.707031 -6.273438 12.6875 -6.390625 C 12.664062 -6.503906 12.679688 -6.617188 12.734375 -6.734375 C 12.804688 -6.867188 12.90625 -6.953125 13.03125 -6.984375 C 13.164062 -7.023438 13.328125 -7 13.515625 -6.90625 L 15.953125 -5.6875 C 16.347656 -5.488281 16.472656 -5.242188 16.328125 -4.953125 C 16.265625 -4.835938 16.164062 -4.753906 16.03125 -4.703125 C 15.90625 -4.660156 15.734375 -4.644531 15.515625 -4.65625 C 15.347656 -4.664062 15.179688 -4.648438 15.015625 -4.609375 C 14.859375 -4.566406 14.671875 -4.5 14.453125 -4.40625 C 14.242188 -4.320312 13.976562 -4.203125 13.65625 -4.046875 L 10.28125 -2.390625 Z M 11 3.421875 "/></g></g></g><g fill="#00609e" fill-opacity="1"><g transform="translate(150.299868, 281.84427)"><g><path d="M 4.59375 -10.828125 C 4.644531 -10.984375 4.734375 -11.082031 4.859375 -11.125 C 4.992188 -11.175781 5.171875 -11.164062 5.390625 -11.09375 L 11.640625 -8.953125 C 11.867188 -8.867188 12.0625 -8.828125 12.21875 -8.828125 C 12.375 -8.835938 12.53125 -8.847656 12.6875 -8.859375 C 12.84375 -8.867188 13.003906 -8.847656 13.171875 -8.796875 C 13.390625 -8.722656 13.53125 -8.601562 13.59375 -8.4375 C 13.65625 -8.28125 13.675781 -8.054688 13.65625 -7.765625 L 13.5625 -5.21875 C 13.539062 -4.84375 13.363281 -4.65625 13.03125 -4.65625 C 12.84375 -4.65625 12.6875 -4.707031 12.5625 -4.8125 C 12.445312 -4.914062 12.378906 -5.066406 12.359375 -5.265625 C 12.285156 -5.765625 12.195312 -6.1875 12.09375 -6.53125 C 11.988281 -6.875 11.863281 -7.148438 11.71875 -7.359375 C 11.582031 -7.566406 11.40625 -7.734375 11.1875 -7.859375 C 10.976562 -7.992188 10.734375 -8.109375 10.453125 -8.203125 L 8.8125 -8.765625 L 7.375 -4.5625 L 8.578125 -4.15625 C 8.796875 -4.070312 8.984375 -4.035156 9.140625 -4.046875 C 9.296875 -4.054688 9.4375 -4.117188 9.5625 -4.234375 C 9.695312 -4.347656 9.835938 -4.519531 9.984375 -4.75 C 10.078125 -4.894531 10.179688 -4.988281 10.296875 -5.03125 C 10.410156 -5.082031 10.53125 -5.09375 10.65625 -5.0625 C 10.78125 -5.03125 10.867188 -4.957031 10.921875 -4.84375 C 10.984375 -4.726562 11.007812 -4.601562 11 -4.46875 L 10.765625 -1.703125 C 10.734375 -1.347656 10.570312 -1.171875 10.28125 -1.171875 C 10.125 -1.179688 9.992188 -1.222656 9.890625 -1.296875 C 9.785156 -1.378906 9.710938 -1.488281 9.671875 -1.625 C 9.585938 -1.9375 9.5 -2.179688 9.40625 -2.359375 C 9.320312 -2.546875 9.203125 -2.691406 9.046875 -2.796875 C 8.890625 -2.898438 8.679688 -3 8.421875 -3.09375 L 7.03125 -3.5625 L 5.859375 -0.15625 C 5.648438 0.457031 5.867188 0.875 6.515625 1.09375 L 7.421875 1.40625 C 7.722656 1.507812 8.003906 1.566406 8.265625 1.578125 C 8.535156 1.597656 8.800781 1.554688 9.0625 1.453125 C 9.332031 1.347656 9.625 1.171875 9.9375 0.921875 C 10.25 0.679688 10.609375 0.34375 11.015625 -0.09375 C 11.253906 -0.34375 11.53125 -0.378906 11.84375 -0.203125 C 11.988281 -0.117188 12.078125 -0.0078125 12.109375 0.125 C 12.148438 0.269531 12.113281 0.425781 12 0.59375 L 10.34375 3.03125 C 10.175781 3.257812 10.015625 3.414062 9.859375 3.5 C 9.710938 3.582031 9.523438 3.585938 9.296875 3.515625 C 9.148438 3.460938 9.019531 3.382812 8.90625 3.28125 C 8.789062 3.1875 8.664062 3.085938 8.53125 2.984375 C 8.394531 2.890625 8.21875 2.804688 8 2.734375 L 1.421875 0.484375 C 1.203125 0.410156 1.054688 0.3125 0.984375 0.1875 C 0.921875 0.0703125 0.910156 -0.0546875 0.953125 -0.203125 C 1.003906 -0.335938 1.070312 -0.4375 1.15625 -0.5 C 1.25 -0.5625 1.378906 -0.59375 1.546875 -0.59375 L 1.953125 -0.5625 C 2.265625 -0.550781 2.46875 -0.675781 2.5625 -0.9375 L 5.40625 -9.28125 C 5.488281 -9.519531 5.40625 -9.734375 5.15625 -9.921875 L 4.828125 -10.171875 C 4.703125 -10.265625 4.617188 -10.367188 4.578125 -10.484375 C 4.546875 -10.597656 4.550781 -10.710938 4.59375 -10.828125 Z M 4.59375 -10.828125 "/></g></g></g><g fill="#00609e" fill-opacity="1"><g transform="translate(162.033932, 285.656853)"><g/></g></g><g fill="#00609e" fill-opacity="1"><g transform="translate(166.07451, 286.79861)"><g><path d="M 5.765625 1.234375 C 5.429688 1.179688 5.140625 1.101562 4.890625 1 C 4.648438 0.894531 4.441406 0.785156 4.265625 0.671875 C 4.085938 0.566406 3.929688 0.472656 3.796875 0.390625 C 3.671875 0.316406 3.5625 0.269531 3.46875 0.25 C 3.34375 0.226562 3.226562 0.238281 3.125 0.28125 C 3.019531 0.332031 2.921875 0.394531 2.828125 0.46875 C 2.734375 0.539062 2.632812 0.597656 2.53125 0.640625 C 2.425781 0.691406 2.3125 0.707031 2.1875 0.6875 C 2.039062 0.65625 1.925781 0.582031 1.84375 0.46875 C 1.757812 0.363281 1.722656 0.207031 1.734375 0 L 1.640625 -2.953125 C 1.648438 -3.265625 1.820312 -3.453125 2.15625 -3.515625 C 2.488281 -3.578125 2.722656 -3.410156 2.859375 -3.015625 C 3.097656 -2.296875 3.363281 -1.71875 3.65625 -1.28125 C 3.957031 -0.851562 4.28125 -0.53125 4.625 -0.3125 C 4.96875 -0.09375 5.332031 0.046875 5.71875 0.109375 C 6.25 0.203125 6.691406 0.140625 7.046875 -0.078125 C 7.398438 -0.296875 7.613281 -0.628906 7.6875 -1.078125 C 7.726562 -1.304688 7.726562 -1.519531 7.6875 -1.71875 C 7.644531 -1.925781 7.53125 -2.128906 7.34375 -2.328125 C 7.164062 -2.535156 6.894531 -2.753906 6.53125 -2.984375 C 6.175781 -3.222656 5.707031 -3.488281 5.125 -3.78125 C 4.28125 -4.207031 3.617188 -4.648438 3.140625 -5.109375 C 2.671875 -5.566406 2.359375 -6.066406 2.203125 -6.609375 C 2.046875 -7.160156 2.03125 -7.785156 2.15625 -8.484375 C 2.238281 -9.035156 2.421875 -9.519531 2.703125 -9.9375 C 2.984375 -10.351562 3.332031 -10.691406 3.75 -10.953125 C 4.175781 -11.222656 4.660156 -11.40625 5.203125 -11.5 C 5.753906 -11.59375 6.359375 -11.582031 7.015625 -11.46875 C 7.378906 -11.40625 7.691406 -11.320312 7.953125 -11.21875 C 8.222656 -11.125 8.457031 -11.019531 8.65625 -10.90625 C 8.851562 -10.800781 9.023438 -10.707031 9.171875 -10.625 C 9.316406 -10.539062 9.453125 -10.488281 9.578125 -10.46875 C 9.679688 -10.445312 9.773438 -10.460938 9.859375 -10.515625 C 9.941406 -10.566406 10.023438 -10.625 10.109375 -10.6875 C 10.191406 -10.757812 10.28125 -10.816406 10.375 -10.859375 C 10.476562 -10.910156 10.59375 -10.925781 10.71875 -10.90625 C 10.875 -10.875 11 -10.796875 11.09375 -10.671875 C 11.1875 -10.554688 11.25 -10.359375 11.28125 -10.078125 L 11.59375 -7.109375 C 11.613281 -6.941406 11.578125 -6.789062 11.484375 -6.65625 C 11.398438 -6.519531 11.269531 -6.4375 11.09375 -6.40625 C 10.925781 -6.375 10.78125 -6.398438 10.65625 -6.484375 C 10.539062 -6.578125 10.457031 -6.710938 10.40625 -6.890625 C 10.175781 -7.660156 9.890625 -8.285156 9.546875 -8.765625 C 9.210938 -9.253906 8.84375 -9.617188 8.4375 -9.859375 C 8.03125 -10.109375 7.613281 -10.265625 7.1875 -10.328125 C 6.664062 -10.421875 6.234375 -10.34375 5.890625 -10.09375 C 5.554688 -9.851562 5.351562 -9.503906 5.28125 -9.046875 C 5.238281 -8.816406 5.238281 -8.597656 5.28125 -8.390625 C 5.320312 -8.191406 5.425781 -7.984375 5.59375 -7.765625 C 5.757812 -7.554688 6.015625 -7.328125 6.359375 -7.078125 C 6.703125 -6.828125 7.164062 -6.546875 7.75 -6.234375 C 8.582031 -5.765625 9.226562 -5.300781 9.6875 -4.84375 C 10.15625 -4.394531 10.46875 -3.910156 10.625 -3.390625 C 10.78125 -2.867188 10.800781 -2.296875 10.6875 -1.671875 C 10.601562 -1.171875 10.425781 -0.71875 10.15625 -0.3125 C 9.894531 0.09375 9.550781 0.429688 9.125 0.703125 C 8.695312 0.972656 8.195312 1.15625 7.625 1.25 C 7.0625 1.351562 6.441406 1.347656 5.765625 1.234375 Z M 5.765625 1.234375 "/></g></g></g><g fill="#00609e" fill-opacity="1"><g transform="translate(177.694724, 288.725506)"><g><path d="M 12.046875 -2.921875 C 12.023438 -2.484375 11.890625 -2.050781 11.640625 -1.625 C 11.398438 -1.207031 11.050781 -0.820312 10.59375 -0.46875 C 10.144531 -0.125 9.601562 0.144531 8.96875 0.34375 C 8.34375 0.539062 7.640625 0.625 6.859375 0.59375 C 5.890625 0.5625 5.023438 0.375 4.265625 0.03125 C 3.503906 -0.3125 2.863281 -0.78125 2.34375 -1.375 C 1.820312 -1.96875 1.429688 -2.660156 1.171875 -3.453125 C 0.910156 -4.242188 0.796875 -5.101562 0.828125 -6.03125 C 0.859375 -6.78125 0.984375 -7.476562 1.203125 -8.125 C 1.421875 -8.78125 1.71875 -9.367188 2.09375 -9.890625 C 2.476562 -10.421875 2.925781 -10.867188 3.4375 -11.234375 C 3.957031 -11.597656 4.519531 -11.875 5.125 -12.0625 C 5.738281 -12.257812 6.390625 -12.347656 7.078125 -12.328125 C 7.492188 -12.304688 7.847656 -12.253906 8.140625 -12.171875 C 8.441406 -12.097656 8.691406 -12.019531 8.890625 -11.9375 C 9.097656 -11.851562 9.269531 -11.773438 9.40625 -11.703125 C 9.550781 -11.628906 9.675781 -11.585938 9.78125 -11.578125 C 9.894531 -11.578125 9.988281 -11.601562 10.0625 -11.65625 C 10.144531 -11.707031 10.222656 -11.769531 10.296875 -11.84375 C 10.367188 -11.914062 10.445312 -11.976562 10.53125 -12.03125 C 10.613281 -12.082031 10.71875 -12.109375 10.84375 -12.109375 C 10.96875 -12.097656 11.066406 -12.050781 11.140625 -11.96875 C 11.222656 -11.894531 11.289062 -11.765625 11.34375 -11.578125 L 12.140625 -8.5 C 12.179688 -8.332031 12.15625 -8.1875 12.0625 -8.0625 C 11.976562 -7.945312 11.859375 -7.878906 11.703125 -7.859375 C 11.535156 -7.816406 11.378906 -7.828125 11.234375 -7.890625 C 11.097656 -7.960938 11 -8.085938 10.9375 -8.265625 C 10.65625 -8.972656 10.335938 -9.53125 9.984375 -9.9375 C 9.628906 -10.351562 9.242188 -10.648438 8.828125 -10.828125 C 8.421875 -11.015625 7.988281 -11.113281 7.53125 -11.125 C 6.90625 -11.15625 6.351562 -10.984375 5.875 -10.609375 C 5.394531 -10.242188 5.007812 -9.710938 4.71875 -9.015625 C 4.4375 -8.328125 4.273438 -7.503906 4.234375 -6.546875 C 4.203125 -5.410156 4.332031 -4.445312 4.625 -3.65625 C 4.925781 -2.863281 5.359375 -2.257812 5.921875 -1.84375 C 6.492188 -1.425781 7.15625 -1.207031 7.90625 -1.1875 C 8.601562 -1.15625 9.226562 -1.300781 9.78125 -1.625 C 10.34375 -1.945312 10.789062 -2.421875 11.125 -3.046875 C 11.226562 -3.203125 11.328125 -3.300781 11.421875 -3.34375 C 11.523438 -3.394531 11.632812 -3.40625 11.75 -3.375 C 11.957031 -3.320312 12.054688 -3.171875 12.046875 -2.921875 Z M 12.046875 -2.921875 "/></g></g></g><g fill="#00609e" fill-opacity="1"><g transform="translate(191.056539, 289.200949)"><g><path d="M 5.5625 -13.25 C 6.539062 -13.363281 7.4375 -13.304688 8.25 -13.078125 C 9.070312 -12.847656 9.789062 -12.472656 10.40625 -11.953125 C 11.03125 -11.441406 11.535156 -10.804688 11.921875 -10.046875 C 12.304688 -9.285156 12.550781 -8.425781 12.65625 -7.46875 C 12.75 -6.5625 12.691406 -5.707031 12.484375 -4.90625 C 12.285156 -4.101562 11.941406 -3.382812 11.453125 -2.75 C 10.960938 -2.113281 10.34375 -1.59375 9.59375 -1.1875 C 8.851562 -0.78125 7.992188 -0.523438 7.015625 -0.421875 C 6.046875 -0.316406 5.148438 -0.378906 4.328125 -0.609375 C 3.515625 -0.835938 2.796875 -1.207031 2.171875 -1.71875 C 1.554688 -2.226562 1.054688 -2.863281 0.671875 -3.625 C 0.296875 -4.382812 0.0546875 -5.25 -0.046875 -6.21875 C -0.140625 -7.113281 -0.0859375 -7.960938 0.109375 -8.765625 C 0.304688 -9.566406 0.65625 -10.285156 1.15625 -10.921875 C 1.65625 -11.554688 2.269531 -12.078125 3 -12.484375 C 3.738281 -12.890625 4.59375 -13.144531 5.5625 -13.25 Z M 9.40625 -5.109375 C 9.320312 -5.890625 9.175781 -6.628906 8.96875 -7.328125 C 8.757812 -8.035156 8.503906 -8.6875 8.203125 -9.28125 C 7.898438 -9.875 7.566406 -10.390625 7.203125 -10.828125 C 6.847656 -11.273438 6.476562 -11.609375 6.09375 -11.828125 C 5.707031 -12.046875 5.335938 -12.132812 4.984375 -12.09375 C 4.316406 -12.03125 3.820312 -11.691406 3.5 -11.078125 C 3.1875 -10.460938 3.085938 -9.628906 3.203125 -8.578125 C 3.285156 -7.796875 3.4375 -7.046875 3.65625 -6.328125 C 3.875 -5.617188 4.132812 -4.96875 4.4375 -4.375 C 4.738281 -3.78125 5.066406 -3.265625 5.421875 -2.828125 C 5.773438 -2.390625 6.140625 -2.0625 6.515625 -1.84375 C 6.898438 -1.625 7.273438 -1.535156 7.640625 -1.578125 C 8.316406 -1.648438 8.804688 -1.992188 9.109375 -2.609375 C 9.421875 -3.222656 9.519531 -4.054688 9.40625 -5.109375 Z M 9.40625 -5.109375 "/></g></g></g><g fill="#00609e" fill-opacity="1"><g transform="translate(205.802325, 287.442063)"><g><path d="M 3.4375 -12.40625 L 3.046875 -12.171875 C 2.785156 -12.015625 2.6875 -11.804688 2.75 -11.546875 L 4.90625 -3.015625 C 4.96875 -2.773438 5.070312 -2.625 5.21875 -2.5625 C 5.363281 -2.507812 5.550781 -2.515625 5.78125 -2.578125 L 6.8125 -2.828125 C 7.113281 -2.910156 7.367188 -3.019531 7.578125 -3.15625 C 7.785156 -3.300781 7.953125 -3.507812 8.078125 -3.78125 C 8.210938 -4.050781 8.328125 -4.425781 8.421875 -4.90625 L 8.65625 -6.1875 C 8.6875 -6.382812 8.757812 -6.53125 8.875 -6.625 C 8.988281 -6.71875 9.128906 -6.757812 9.296875 -6.75 C 9.472656 -6.75 9.609375 -6.695312 9.703125 -6.59375 C 9.796875 -6.5 9.835938 -6.347656 9.828125 -6.140625 L 9.78125 -2.96875 C 9.78125 -2.675781 9.734375 -2.453125 9.640625 -2.296875 C 9.554688 -2.148438 9.40625 -2.046875 9.1875 -1.984375 C 9.039062 -1.953125 8.894531 -1.945312 8.75 -1.96875 C 8.613281 -1.988281 8.457031 -2.003906 8.28125 -2.015625 C 8.101562 -2.023438 7.898438 -2 7.671875 -1.9375 L 1.453125 -0.375 C 1.234375 -0.3125 1.0625 -0.304688 0.9375 -0.359375 C 0.8125 -0.421875 0.726562 -0.53125 0.6875 -0.6875 C 0.65625 -0.820312 0.660156 -0.941406 0.703125 -1.046875 C 0.753906 -1.148438 0.84375 -1.25 0.96875 -1.34375 L 1.34375 -1.546875 C 1.59375 -1.703125 1.6875 -1.914062 1.625 -2.1875 L -0.53125 -10.71875 C -0.59375 -10.976562 -0.773438 -11.113281 -1.078125 -11.125 L -1.5 -11.15625 C -1.664062 -11.164062 -1.789062 -11.207031 -1.875 -11.28125 C -1.96875 -11.363281 -2.03125 -11.460938 -2.0625 -11.578125 C -2.101562 -11.734375 -2.082031 -11.863281 -2 -11.96875 C -1.914062 -12.082031 -1.765625 -12.171875 -1.546875 -12.234375 L 2.9375 -13.359375 C 3.144531 -13.410156 3.3125 -13.40625 3.4375 -13.34375 C 3.5625 -13.289062 3.644531 -13.1875 3.6875 -13.03125 C 3.71875 -12.914062 3.710938 -12.800781 3.671875 -12.6875 C 3.628906 -12.582031 3.550781 -12.488281 3.4375 -12.40625 Z M 3.4375 -12.40625 "/></g></g></g><g fill="#00609e" fill-opacity="1"><g transform="translate(217.624213, 284.468155)"><g><path d="M 3.8125 -2.078125 C 3.875 -1.929688 3.875 -1.796875 3.8125 -1.671875 C 3.75 -1.554688 3.613281 -1.457031 3.40625 -1.375 L 0.84375 -0.34375 C 0.632812 -0.257812 0.460938 -0.238281 0.328125 -0.28125 C 0.203125 -0.320312 0.109375 -0.414062 0.046875 -0.5625 C 0.00390625 -0.664062 -0.00390625 -0.765625 0.015625 -0.859375 C 0.0351562 -0.953125 0.0976562 -1.054688 0.203125 -1.171875 L 0.375 -1.375 C 0.46875 -1.476562 0.535156 -1.582031 0.578125 -1.6875 C 0.628906 -1.800781 0.65625 -1.941406 0.65625 -2.109375 C 0.664062 -2.273438 0.65625 -2.492188 0.625 -2.765625 L 0.03125 -11.015625 C 0 -11.328125 -0.0507812 -11.535156 -0.125 -11.640625 C -0.207031 -11.753906 -0.363281 -11.8125 -0.59375 -11.8125 C -0.757812 -11.820312 -0.890625 -11.851562 -0.984375 -11.90625 C -1.085938 -11.96875 -1.160156 -12.054688 -1.203125 -12.171875 C -1.265625 -12.316406 -1.257812 -12.445312 -1.1875 -12.5625 C -1.125 -12.675781 -0.988281 -12.773438 -0.78125 -12.859375 L 3.8125 -14.71875 C 4.019531 -14.800781 4.1875 -14.820312 4.3125 -14.78125 C 4.4375 -14.738281 4.53125 -14.644531 4.59375 -14.5 C 4.6875 -14.257812 4.628906 -14.035156 4.421875 -13.828125 C 4.296875 -13.734375 4.238281 -13.628906 4.25 -13.515625 C 4.257812 -13.398438 4.34375 -13.253906 4.5 -13.078125 L 10.078125 -6.40625 C 10.296875 -6.132812 10.484375 -5.941406 10.640625 -5.828125 C 10.796875 -5.710938 10.96875 -5.660156 11.15625 -5.671875 C 11.363281 -5.671875 11.515625 -5.640625 11.609375 -5.578125 C 11.703125 -5.515625 11.773438 -5.421875 11.828125 -5.296875 C 11.890625 -5.148438 11.882812 -5.015625 11.8125 -4.890625 C 11.75 -4.773438 11.613281 -4.675781 11.40625 -4.59375 L 7.484375 -3.015625 C 7.273438 -2.929688 7.101562 -2.910156 6.96875 -2.953125 C 6.84375 -2.992188 6.75 -3.085938 6.6875 -3.234375 C 6.644531 -3.347656 6.640625 -3.453125 6.671875 -3.546875 C 6.703125 -3.648438 6.773438 -3.753906 6.890625 -3.859375 L 7.203125 -4.109375 C 7.328125 -4.222656 7.359375 -4.332031 7.296875 -4.4375 C 7.242188 -4.539062 7.132812 -4.691406 6.96875 -4.890625 L 5.625 -6.5625 L 1.765625 -5.015625 L 1.890625 -3.46875 C 1.910156 -3.175781 1.953125 -2.953125 2.015625 -2.796875 C 2.078125 -2.648438 2.171875 -2.539062 2.296875 -2.46875 C 2.429688 -2.394531 2.628906 -2.359375 2.890625 -2.359375 L 3.25 -2.375 C 3.382812 -2.375 3.5 -2.351562 3.59375 -2.3125 C 3.695312 -2.269531 3.769531 -2.191406 3.8125 -2.078125 Z M 1.671875 -6.15625 L 4.859375 -7.4375 L 1.25 -11.859375 Z M 1.671875 -6.15625 "/></g></g></g><g fill="#00609e" fill-opacity="1"><g transform="translate(230.564604, 279.043934)"><g><path d="M 4.015625 -4.140625 C 4.140625 -3.898438 4.351562 -3.804688 4.65625 -3.859375 L 5.09375 -3.96875 C 5.238281 -3.988281 5.363281 -3.972656 5.46875 -3.921875 C 5.570312 -3.867188 5.65625 -3.78125 5.71875 -3.65625 C 5.789062 -3.519531 5.800781 -3.390625 5.75 -3.265625 C 5.695312 -3.140625 5.578125 -3.023438 5.390625 -2.921875 L 1.3125 -0.71875 C 1.113281 -0.601562 0.945312 -0.5625 0.8125 -0.59375 C 0.675781 -0.625 0.570312 -0.707031 0.5 -0.84375 C 0.4375 -0.96875 0.410156 -1.082031 0.421875 -1.1875 C 0.441406 -1.300781 0.503906 -1.421875 0.609375 -1.546875 L 0.90625 -1.828125 C 1.125 -2.046875 1.171875 -2.273438 1.046875 -2.515625 L -3.15625 -10.25 C -3.28125 -10.476562 -3.5 -10.566406 -3.8125 -10.515625 L -4.21875 -10.4375 C -4.375 -10.414062 -4.503906 -10.429688 -4.609375 -10.484375 C -4.710938 -10.535156 -4.796875 -10.613281 -4.859375 -10.71875 C -4.929688 -10.851562 -4.941406 -10.984375 -4.890625 -11.109375 C -4.835938 -11.234375 -4.710938 -11.351562 -4.515625 -11.46875 L -0.4375 -13.671875 C -0.25 -13.773438 -0.0859375 -13.8125 0.046875 -13.78125 C 0.179688 -13.75 0.285156 -13.664062 0.359375 -13.53125 C 0.421875 -13.425781 0.441406 -13.316406 0.421875 -13.203125 C 0.410156 -13.097656 0.359375 -12.984375 0.265625 -12.859375 L -0.0625 -12.546875 C -0.269531 -12.328125 -0.3125 -12.101562 -0.1875 -11.875 Z M 4.015625 -4.140625 "/></g></g></g><g fill="#00609e" fill-opacity="1"><g transform="translate(237.959856, 275.193073)"><g><path d="M 5.671875 -13.78125 C 6.054688 -13.226562 6.242188 -12.628906 6.234375 -11.984375 C 6.234375 -11.335938 6.035156 -10.707031 5.640625 -10.09375 L 9.1875 -8.53125 C 9.382812 -8.457031 9.546875 -8.410156 9.671875 -8.390625 C 9.804688 -8.378906 9.957031 -8.394531 10.125 -8.4375 C 10.300781 -8.476562 10.4375 -8.484375 10.53125 -8.453125 C 10.632812 -8.421875 10.726562 -8.347656 10.8125 -8.234375 C 10.894531 -8.109375 10.921875 -7.976562 10.890625 -7.84375 C 10.859375 -7.707031 10.753906 -7.578125 10.578125 -7.453125 L 7.28125 -5.140625 C 6.9375 -4.898438 6.671875 -4.914062 6.484375 -5.1875 C 6.378906 -5.320312 6.375 -5.476562 6.46875 -5.65625 L 6.5625 -5.828125 C 6.632812 -5.953125 6.648438 -6.050781 6.609375 -6.125 C 6.566406 -6.195312 6.476562 -6.269531 6.34375 -6.34375 L 3.453125 -7.75 L 3.421875 -7.71875 C 3.148438 -7.53125 2.878906 -7.375 2.609375 -7.25 C 2.347656 -7.125 2.097656 -7.015625 1.859375 -6.921875 L 3.515625 -4.578125 C 3.648438 -4.367188 3.851562 -4.289062 4.125 -4.34375 L 4.53125 -4.5 C 4.707031 -4.53125 4.84375 -4.523438 4.9375 -4.484375 C 5.03125 -4.453125 5.117188 -4.378906 5.203125 -4.265625 C 5.285156 -4.140625 5.3125 -4.007812 5.28125 -3.875 C 5.25 -3.75 5.140625 -3.625 4.953125 -3.5 L 1.21875 -0.859375 C 1.03125 -0.734375 0.867188 -0.675781 0.734375 -0.6875 C 0.597656 -0.695312 0.488281 -0.765625 0.40625 -0.890625 C 0.320312 -1.003906 0.28125 -1.117188 0.28125 -1.234375 C 0.289062 -1.347656 0.335938 -1.472656 0.421875 -1.609375 L 0.6875 -1.921875 C 0.875 -2.171875 0.890625 -2.40625 0.734375 -2.625 L -4.359375 -9.828125 C -4.503906 -10.035156 -4.722656 -10.097656 -5.015625 -10.015625 L -5.421875 -9.875 C -5.566406 -9.832031 -5.691406 -9.828125 -5.796875 -9.859375 C -5.910156 -9.898438 -6.003906 -9.972656 -6.078125 -10.078125 C -6.171875 -10.203125 -6.195312 -10.332031 -6.15625 -10.46875 C -6.125 -10.601562 -6.015625 -10.734375 -5.828125 -10.859375 L -1.984375 -13.5625 C -0.867188 -14.351562 0.175781 -14.875 1.15625 -15.125 C 2.144531 -15.382812 3.023438 -15.394531 3.796875 -15.15625 C 4.566406 -14.925781 5.191406 -14.46875 5.671875 -13.78125 Z M -2 -12.375 L 1.296875 -7.703125 C 1.460938 -7.765625 1.632812 -7.84375 1.8125 -7.9375 C 1.988281 -8.03125 2.160156 -8.140625 2.328125 -8.265625 C 2.960938 -8.710938 3.332031 -9.226562 3.4375 -9.8125 C 3.539062 -10.394531 3.351562 -11.03125 2.875 -11.71875 C 2.488281 -12.257812 2.046875 -12.660156 1.546875 -12.921875 C 1.054688 -13.179688 0.539062 -13.296875 0 -13.265625 C -0.539062 -13.234375 -1.054688 -13.046875 -1.546875 -12.703125 Z M -2 -12.375 "/></g></g></g><g fill="#00609e" fill-opacity="1"><g transform="translate(249.906817, 266.603423)"><g><path d="M -7.4375 -9.125 C -7.539062 -9.238281 -7.582031 -9.363281 -7.5625 -9.5 C -7.550781 -9.632812 -7.460938 -9.78125 -7.296875 -9.9375 L -2.484375 -14.46875 C -2.304688 -14.625 -2.179688 -14.773438 -2.109375 -14.921875 C -2.035156 -15.066406 -1.96875 -15.207031 -1.90625 -15.34375 C -1.84375 -15.488281 -1.75 -15.617188 -1.625 -15.734375 C -1.457031 -15.890625 -1.285156 -15.960938 -1.109375 -15.953125 C -0.929688 -15.941406 -0.726562 -15.859375 -0.5 -15.703125 L 1.71875 -14.4375 C 2.050781 -14.226562 2.132812 -13.976562 1.96875 -13.6875 C 1.882812 -13.53125 1.765625 -13.421875 1.609375 -13.359375 C 1.460938 -13.296875 1.296875 -13.304688 1.109375 -13.390625 C 0.640625 -13.554688 0.226562 -13.671875 -0.125 -13.734375 C -0.476562 -13.804688 -0.78125 -13.828125 -1.03125 -13.796875 C -1.28125 -13.773438 -1.507812 -13.703125 -1.71875 -13.578125 C -1.9375 -13.453125 -2.15625 -13.285156 -2.375 -13.078125 L -3.640625 -11.890625 L -0.59375 -8.640625 L 0.328125 -9.515625 C 0.503906 -9.671875 0.625 -9.816406 0.6875 -9.953125 C 0.757812 -10.097656 0.773438 -10.257812 0.734375 -10.4375 C 0.691406 -10.613281 0.601562 -10.820312 0.46875 -11.0625 C 0.375 -11.195312 0.335938 -11.328125 0.359375 -11.453125 C 0.378906 -11.578125 0.425781 -11.6875 0.5 -11.78125 C 0.59375 -11.882812 0.695312 -11.9375 0.8125 -11.9375 C 0.9375 -11.9375 1.054688 -11.894531 1.171875 -11.8125 L 3.515625 -10.3125 C 3.816406 -10.113281 3.898438 -9.890625 3.765625 -9.640625 C 3.679688 -9.503906 3.582031 -9.40625 3.46875 -9.34375 C 3.351562 -9.289062 3.222656 -9.28125 3.078125 -9.3125 C 2.765625 -9.394531 2.503906 -9.429688 2.296875 -9.421875 C 2.097656 -9.421875 1.914062 -9.378906 1.75 -9.296875 C 1.582031 -9.222656 1.398438 -9.09375 1.203125 -8.90625 L 0.125 -7.890625 L 2.59375 -5.25 C 3.039062 -4.78125 3.515625 -4.78125 4.015625 -5.25 L 4.71875 -5.90625 C 4.945312 -6.125 5.128906 -6.34375 5.265625 -6.5625 C 5.398438 -6.789062 5.484375 -7.046875 5.515625 -7.328125 C 5.554688 -7.609375 5.539062 -7.945312 5.46875 -8.34375 C 5.394531 -8.75 5.257812 -9.226562 5.0625 -9.78125 C 4.957031 -10.101562 5.050781 -10.363281 5.34375 -10.5625 C 5.476562 -10.65625 5.617188 -10.679688 5.765625 -10.640625 C 5.921875 -10.609375 6.046875 -10.5 6.140625 -10.3125 L 7.515625 -7.734375 C 7.640625 -7.484375 7.703125 -7.265625 7.703125 -7.078125 C 7.703125 -6.898438 7.613281 -6.726562 7.4375 -6.5625 C 7.332031 -6.457031 7.210938 -6.378906 7.078125 -6.328125 C 6.941406 -6.273438 6.796875 -6.210938 6.640625 -6.140625 C 6.484375 -6.066406 6.320312 -5.953125 6.15625 -5.796875 L 1.09375 -1.03125 C 0.925781 -0.875 0.769531 -0.789062 0.625 -0.78125 C 0.488281 -0.769531 0.367188 -0.820312 0.265625 -0.9375 C 0.171875 -1.039062 0.117188 -1.148438 0.109375 -1.265625 C 0.0976562 -1.378906 0.125 -1.507812 0.1875 -1.65625 L 0.421875 -2 C 0.554688 -2.269531 0.535156 -2.503906 0.359375 -2.703125 L -5.6875 -9.125 C -5.863281 -9.3125 -6.085938 -9.335938 -6.359375 -9.203125 L -6.75 -9.015625 C -6.882812 -8.953125 -7.007812 -8.929688 -7.125 -8.953125 C -7.238281 -8.972656 -7.34375 -9.03125 -7.4375 -9.125 Z M -7.4375 -9.125 "/></g></g></g><g fill="#00609e" fill-opacity="1"><g transform="translate(258.759519, 258.010205)"><g/></g></g><g fill="#cb6ce6" fill-opacity="1"><g transform="translate(261.658085, 254.967554)"><g><path d="M -5.03125 -13.59375 C -4.882812 -13.789062 -4.78125 -13.96875 -4.71875 -14.125 C -4.65625 -14.289062 -4.601562 -14.441406 -4.5625 -14.578125 C -4.519531 -14.710938 -4.457031 -14.832031 -4.375 -14.9375 C -4.226562 -15.132812 -4.070312 -15.242188 -3.90625 -15.265625 C -3.75 -15.285156 -3.539062 -15.242188 -3.28125 -15.140625 L -0.75 -14.15625 C -0.59375 -14.101562 -0.5 -14.003906 -0.46875 -13.859375 C -0.445312 -13.722656 -0.472656 -13.582031 -0.546875 -13.4375 C -0.617188 -13.300781 -0.710938 -13.203125 -0.828125 -13.140625 C -0.941406 -13.078125 -1.09375 -13.054688 -1.28125 -13.078125 C -1.789062 -13.179688 -2.222656 -13.238281 -2.578125 -13.25 C -2.929688 -13.269531 -3.234375 -13.242188 -3.484375 -13.171875 C -3.742188 -13.109375 -3.960938 -13 -4.140625 -12.84375 C -4.328125 -12.6875 -4.503906 -12.492188 -4.671875 -12.265625 L -5.546875 -11.125 L -1.734375 -8.21875 L -0.921875 -9.28125 C -0.785156 -9.46875 -0.695312 -9.640625 -0.65625 -9.796875 C -0.625 -9.953125 -0.640625 -10.113281 -0.703125 -10.28125 C -0.765625 -10.445312 -0.890625 -10.644531 -1.078125 -10.875 C -1.171875 -11.007812 -1.210938 -11.128906 -1.203125 -11.234375 C -1.203125 -11.335938 -1.171875 -11.445312 -1.109375 -11.5625 C -0.941406 -11.789062 -0.722656 -11.847656 -0.453125 -11.734375 L 2.109375 -10.625 C 2.285156 -10.550781 2.394531 -10.460938 2.4375 -10.359375 C 2.476562 -10.253906 2.484375 -10.132812 2.453125 -10 C 2.359375 -9.695312 2.128906 -9.554688 1.765625 -9.578125 C 1.472656 -9.597656 1.226562 -9.59375 1.03125 -9.5625 C 0.84375 -9.53125 0.675781 -9.457031 0.53125 -9.34375 C 0.382812 -9.238281 0.222656 -9.078125 0.046875 -8.859375 L -0.90625 -7.59375 L 1.953125 -5.421875 C 2.078125 -5.328125 2.195312 -5.28125 2.3125 -5.28125 C 2.425781 -5.28125 2.539062 -5.328125 2.65625 -5.421875 L 3.140625 -5.890625 C 3.390625 -6.109375 3.640625 -6.117188 3.890625 -5.921875 C 4.003906 -5.828125 4.0625 -5.710938 4.0625 -5.578125 C 4.070312 -5.441406 4.015625 -5.285156 3.890625 -5.109375 L 0.90625 -1.1875 C 0.769531 -1.007812 0.632812 -0.90625 0.5 -0.875 C 0.363281 -0.84375 0.238281 -0.875 0.125 -0.96875 C 0.0078125 -1.050781 -0.0625 -1.144531 -0.09375 -1.25 C -0.125 -1.363281 -0.117188 -1.492188 -0.078125 -1.640625 L 0.078125 -2.03125 C 0.179688 -2.320312 0.125 -2.550781 -0.09375 -2.71875 L -7.109375 -8.046875 C -7.304688 -8.203125 -7.535156 -8.195312 -7.796875 -8.03125 L -8.140625 -7.765625 C -8.265625 -7.679688 -8.382812 -7.640625 -8.5 -7.640625 C -8.613281 -7.648438 -8.722656 -7.695312 -8.828125 -7.78125 C -8.953125 -7.875 -9.015625 -7.988281 -9.015625 -8.125 C -9.023438 -8.257812 -8.960938 -8.414062 -8.828125 -8.59375 Z M -5.03125 -13.59375 "/></g></g></g><g fill="#cb6ce6" fill-opacity="1"><g transform="translate(268.873621, 245.514791)"><g><path d="M 1.6875 -4 C 1.820312 -3.914062 1.898438 -3.804688 1.921875 -3.671875 C 1.953125 -3.546875 1.914062 -3.382812 1.8125 -3.1875 L 0.453125 -0.78125 C 0.335938 -0.59375 0.210938 -0.472656 0.078125 -0.421875 C -0.046875 -0.367188 -0.175781 -0.382812 -0.3125 -0.46875 C -0.40625 -0.519531 -0.472656 -0.585938 -0.515625 -0.671875 C -0.554688 -0.765625 -0.578125 -0.890625 -0.578125 -1.046875 L -0.5625 -1.3125 C -0.5625 -1.445312 -0.578125 -1.570312 -0.609375 -1.6875 C -0.640625 -1.800781 -0.703125 -1.921875 -0.796875 -2.046875 C -0.898438 -2.179688 -1.046875 -2.351562 -1.234375 -2.5625 L -6.828125 -8.640625 C -7.046875 -8.867188 -7.21875 -9 -7.34375 -9.03125 C -7.476562 -9.0625 -7.640625 -9.015625 -7.828125 -8.890625 C -7.953125 -8.785156 -8.070312 -8.722656 -8.1875 -8.703125 C -8.300781 -8.679688 -8.410156 -8.703125 -8.515625 -8.765625 C -8.648438 -8.835938 -8.726562 -8.941406 -8.75 -9.078125 C -8.78125 -9.222656 -8.738281 -9.394531 -8.625 -9.59375 L -6.1875 -13.90625 C -6.070312 -14.09375 -5.945312 -14.207031 -5.8125 -14.25 C -5.6875 -14.289062 -5.554688 -14.273438 -5.421875 -14.203125 C -5.203125 -14.078125 -5.113281 -13.875 -5.15625 -13.59375 C -5.1875 -13.425781 -5.160156 -13.300781 -5.078125 -13.21875 C -5.003906 -13.132812 -4.851562 -13.070312 -4.625 -13.03125 L 3.890625 -11.28125 C 4.234375 -11.207031 4.5 -11.175781 4.6875 -11.1875 C 4.882812 -11.195312 5.054688 -11.265625 5.203125 -11.390625 C 5.367188 -11.515625 5.503906 -11.582031 5.609375 -11.59375 C 5.722656 -11.601562 5.835938 -11.578125 5.953125 -11.515625 C 6.085938 -11.429688 6.164062 -11.320312 6.1875 -11.1875 C 6.21875 -11.050781 6.179688 -10.882812 6.078125 -10.6875 L 3.984375 -7.015625 C 3.867188 -6.816406 3.742188 -6.691406 3.609375 -6.640625 C 3.484375 -6.585938 3.351562 -6.601562 3.21875 -6.6875 C 3.113281 -6.75 3.046875 -6.828125 3.015625 -6.921875 C 2.984375 -7.015625 2.96875 -7.144531 2.96875 -7.3125 L 3.078125 -7.703125 C 3.097656 -7.867188 3.054688 -7.972656 2.953125 -8.015625 C 2.847656 -8.054688 2.664062 -8.101562 2.40625 -8.15625 L 0.3125 -8.625 L -1.734375 -5.015625 L -0.6875 -3.90625 C -0.488281 -3.6875 -0.316406 -3.535156 -0.171875 -3.453125 C -0.0351562 -3.367188 0.101562 -3.335938 0.25 -3.359375 C 0.40625 -3.390625 0.582031 -3.476562 0.78125 -3.625 L 1.046875 -3.890625 C 1.171875 -3.972656 1.28125 -4.023438 1.375 -4.046875 C 1.476562 -4.078125 1.582031 -4.0625 1.6875 -4 Z M -2.515625 -5.875 L -0.8125 -8.859375 L -6.390625 -10.0625 Z M -2.515625 -5.875 "/></g></g></g><g fill="#cb6ce6" fill-opacity="1"><g transform="translate(275.815412, 233.111605)"><g><path d="M -10.171875 -7.5625 L -7.984375 -13.140625 C -7.898438 -13.359375 -7.847656 -13.554688 -7.828125 -13.734375 C -7.816406 -13.910156 -7.804688 -14.066406 -7.796875 -14.203125 C -7.796875 -14.335938 -7.769531 -14.472656 -7.71875 -14.609375 C -7.625 -14.835938 -7.503906 -14.984375 -7.359375 -15.046875 C -7.210938 -15.117188 -7 -15.140625 -6.71875 -15.109375 L -3.84375 -14.609375 C -3.414062 -14.515625 -3.242188 -14.296875 -3.328125 -13.953125 C -3.347656 -13.785156 -3.40625 -13.65625 -3.5 -13.5625 C -3.601562 -13.476562 -3.75 -13.421875 -3.9375 -13.390625 C -4.5 -13.359375 -4.96875 -13.316406 -5.34375 -13.265625 C -5.71875 -13.210938 -6.023438 -13.140625 -6.265625 -13.046875 C -6.503906 -12.960938 -6.6875 -12.851562 -6.8125 -12.71875 C -6.945312 -12.59375 -7.054688 -12.425781 -7.140625 -12.21875 L -7.40625 -11.515625 L 1.34375 -8.078125 C 1.59375 -7.984375 1.8125 -8.050781 2 -8.28125 L 2.25 -8.640625 C 2.351562 -8.765625 2.457031 -8.835938 2.5625 -8.859375 C 2.675781 -8.878906 2.796875 -8.867188 2.921875 -8.828125 C 3.066406 -8.765625 3.160156 -8.664062 3.203125 -8.53125 C 3.253906 -8.40625 3.238281 -8.242188 3.15625 -8.046875 L 1.46875 -3.71875 C 1.382812 -3.519531 1.28125 -3.382812 1.15625 -3.3125 C 1.039062 -3.25 0.910156 -3.25 0.765625 -3.3125 C 0.640625 -3.351562 0.539062 -3.421875 0.46875 -3.515625 C 0.40625 -3.617188 0.382812 -3.75 0.40625 -3.90625 L 0.4375 -4.3125 C 0.457031 -4.625 0.34375 -4.828125 0.09375 -4.921875 L -8.65625 -8.359375 L -8.921875 -7.671875 C -9.003906 -7.460938 -9.039062 -7.265625 -9.03125 -7.078125 C -9.03125 -6.898438 -8.972656 -6.695312 -8.859375 -6.46875 C -8.742188 -6.25 -8.566406 -5.988281 -8.328125 -5.6875 C -8.085938 -5.382812 -7.769531 -5.035156 -7.375 -4.640625 C -7.25 -4.492188 -7.179688 -4.351562 -7.171875 -4.21875 C -7.171875 -4.09375 -7.21875 -3.957031 -7.3125 -3.8125 C -7.488281 -3.5 -7.757812 -3.457031 -8.125 -3.6875 L -10.59375 -5.265625 C -10.8125 -5.429688 -10.953125 -5.585938 -11.015625 -5.734375 C -11.078125 -5.890625 -11.0625 -6.082031 -10.96875 -6.3125 C -10.914062 -6.445312 -10.84375 -6.566406 -10.75 -6.671875 C -10.664062 -6.773438 -10.566406 -6.894531 -10.453125 -7.03125 C -10.347656 -7.164062 -10.253906 -7.34375 -10.171875 -7.5625 Z M -10.171875 -7.5625 "/></g></g></g><g fill="#cb6ce6" fill-opacity="1"><g transform="translate(280.692575, 220.543706)"><g><path d="M -11.109375 -6.09375 L -9.703125 -11.90625 C -9.648438 -12.144531 -9.628906 -12.351562 -9.640625 -12.53125 C -9.660156 -12.707031 -9.675781 -12.863281 -9.6875 -13 C -9.707031 -13.132812 -9.695312 -13.273438 -9.65625 -13.421875 C -9.601562 -13.648438 -9.503906 -13.8125 -9.359375 -13.90625 C -9.222656 -14 -9.015625 -14.046875 -8.734375 -14.046875 L -5.8125 -13.9375 C -5.382812 -13.90625 -5.179688 -13.710938 -5.203125 -13.359375 C -5.210938 -13.191406 -5.257812 -13.054688 -5.34375 -12.953125 C -5.425781 -12.847656 -5.5625 -12.769531 -5.75 -12.71875 C -6.289062 -12.613281 -6.75 -12.507812 -7.125 -12.40625 C -7.5 -12.300781 -7.796875 -12.1875 -8.015625 -12.0625 C -8.234375 -11.945312 -8.394531 -11.8125 -8.5 -11.65625 C -8.613281 -11.507812 -8.695312 -11.328125 -8.75 -11.109375 L -8.921875 -10.390625 L 0.203125 -8.203125 C 0.460938 -8.140625 0.675781 -8.238281 0.84375 -8.5 L 1.046875 -8.859375 C 1.128906 -9.003906 1.222656 -9.09375 1.328125 -9.125 C 1.429688 -9.164062 1.550781 -9.164062 1.6875 -9.125 C 1.832031 -9.09375 1.9375 -9.015625 2 -8.890625 C 2.0625 -8.773438 2.066406 -8.613281 2.015625 -8.40625 L 0.9375 -3.890625 C 0.882812 -3.671875 0.800781 -3.519531 0.6875 -3.4375 C 0.570312 -3.363281 0.441406 -3.34375 0.296875 -3.375 C 0.160156 -3.414062 0.0546875 -3.476562 -0.015625 -3.5625 C -0.0859375 -3.65625 -0.128906 -3.773438 -0.140625 -3.921875 L -0.15625 -4.359375 C -0.1875 -4.660156 -0.332031 -4.84375 -0.59375 -4.90625 L -9.71875 -7.09375 L -9.890625 -6.359375 C -9.941406 -6.148438 -9.953125 -5.953125 -9.921875 -5.765625 C -9.898438 -5.585938 -9.816406 -5.394531 -9.671875 -5.1875 C -9.523438 -4.976562 -9.304688 -4.742188 -9.015625 -4.484375 C -8.734375 -4.222656 -8.378906 -3.921875 -7.953125 -3.578125 C -7.804688 -3.453125 -7.71875 -3.320312 -7.6875 -3.1875 C -7.664062 -3.0625 -7.6875 -2.921875 -7.75 -2.765625 C -7.894531 -2.429688 -8.164062 -2.351562 -8.5625 -2.53125 L -11.21875 -3.765625 C -11.457031 -3.898438 -11.617188 -4.035156 -11.703125 -4.171875 C -11.796875 -4.316406 -11.8125 -4.507812 -11.75 -4.75 C -11.71875 -4.882812 -11.660156 -5.007812 -11.578125 -5.125 C -11.503906 -5.25 -11.421875 -5.382812 -11.328125 -5.53125 C -11.242188 -5.675781 -11.171875 -5.863281 -11.109375 -6.09375 Z M -11.109375 -6.09375 "/></g></g></g><g clip-path="url(#eee9065f4d)"><g clip-path="url(#8cacf47c0f)"><g transform="matrix(1, 0, 0, 1, 84, 185)"><g clip-path="url(#d23903cedb)"><g clip-path="url(#e2b297fcd4)"><g clip-path="url(#8263b326e7)"><path fill="#00609e" d="M 0.292969 0.84375 L 14.007812 0.84375 L 14.007812 14.5625 L 0.292969 14.5625 Z M 0.292969 0.84375 " fill-opacity="1" fill-rule="nonzero"/></g></g></g></g></g></g><g clip-path="url(#3c3b95c1ff)"><g clip-path="url(#644867beaa)"><g transform="matrix(1, 0, 0, 1, 274, 185)"><g clip-path="url(#a301ed8a60)"><g clip-path="url(#f418fd3009)"><g clip-path="url(#ee33eefc09)"><path fill="#00609e" d="M 0.160156 0.84375 L 13.875 0.84375 L 13.875 14.5625 L 0.160156 14.5625 Z M 0.160156 0.84375 " fill-opacity="1" fill-rule="nonzero"/></g></g></g></g></g></g></svg>